<svg width="1313" height="291" viewBox="0 0 1313 291" fill="none" xmlns="http://www.w3.org/2000/svg">
<path d="M521.832 70.4479V194H491.736V119.904L464.104 194H439.816L412.008 119.728V194H381.912V70.4479H417.464L452.136 155.984L486.456 70.4479H521.832Z" fill="#EAEAEA"/>
<path d="M582.613 195.408C572.992 195.408 564.309 193.355 556.565 189.248C548.939 185.141 542.896 179.275 538.437 171.648C534.096 164.021 531.925 155.104 531.925 144.896C531.925 134.805 534.155 125.947 538.613 118.32C543.072 110.576 549.173 104.651 556.917 100.544C564.661 96.4373 573.344 94.3839 582.965 94.3839C592.587 94.3839 601.269 96.4373 609.013 100.544C616.757 104.651 622.859 110.576 627.317 118.32C631.776 125.947 634.005 134.805 634.005 144.896C634.005 154.987 631.717 163.904 627.141 171.648C622.683 179.275 616.523 185.141 608.661 189.248C600.917 193.355 592.235 195.408 582.613 195.408ZM582.613 169.36C588.363 169.36 593.232 167.248 597.221 163.024C601.328 158.8 603.381 152.757 603.381 144.896C603.381 137.035 601.387 130.992 597.397 126.768C593.525 122.544 588.715 120.432 582.965 120.432C577.099 120.432 572.229 122.544 568.357 126.768C564.485 130.875 562.549 136.917 562.549 144.896C562.549 152.757 564.427 158.8 568.181 163.024C572.053 167.248 576.864 169.36 582.613 169.36Z" fill="#EAEAEA"/>
<path d="M689.111 195.408C679.489 195.408 670.807 193.355 663.063 189.248C655.436 185.141 649.393 179.275 644.935 171.648C640.593 164.021 638.423 155.104 638.423 144.896C638.423 134.805 640.652 125.947 645.111 118.32C649.569 110.576 655.671 104.651 663.415 100.544C671.159 96.4373 679.841 94.3839 689.463 94.3839C699.084 94.3839 707.767 96.4373 715.511 100.544C723.255 104.651 729.356 110.576 733.815 118.32C738.273 125.947 740.503 134.805 740.503 144.896C740.503 154.987 738.215 163.904 733.639 171.648C729.18 179.275 723.02 185.141 715.159 189.248C707.415 193.355 698.732 195.408 689.111 195.408ZM689.111 169.36C694.86 169.36 699.729 167.248 703.719 163.024C707.825 158.8 709.879 152.757 709.879 144.896C709.879 137.035 707.884 130.992 703.895 126.768C700.023 122.544 695.212 120.432 689.463 120.432C683.596 120.432 678.727 122.544 674.855 126.768C670.983 130.875 669.047 136.917 669.047 144.896C669.047 152.757 670.924 158.8 674.679 163.024C678.551 167.248 683.361 169.36 689.111 169.36Z" fill="#EAEAEA"/>
<path d="M810.744 94.7359C822.242 94.7359 831.394 98.4906 838.2 106C845.122 113.392 848.584 123.6 848.584 136.624V194H818.664V140.672C818.664 134.101 816.962 128.997 813.56 125.36C810.157 121.723 805.581 119.904 799.832 119.904C794.082 119.904 789.507 121.723 786.104 125.36C782.701 128.997 781 134.101 781 140.672V194H750.904V95.7919H781V108.816C784.05 104.475 788.157 101.072 793.32 98.6079C798.482 96.0266 804.29 94.7359 810.744 94.7359Z" fill="#EAEAEA"/>
<path d="M894.028 63.7599V194H863.932V63.7599H894.028Z" fill="#EAEAEA"/>
<path d="M925.409 85.5839C920.129 85.5839 915.788 84.0586 912.385 81.0079C909.1 77.8399 907.457 73.9679 907.457 69.3919C907.457 64.6986 909.1 60.8266 912.385 57.7759C915.788 54.6079 920.129 53.0239 925.409 53.0239C930.572 53.0239 934.796 54.6079 938.081 57.7759C941.484 60.8266 943.185 64.6986 943.185 69.3919C943.185 73.9679 941.484 77.8399 938.081 81.0079C934.796 84.0586 930.572 85.5839 925.409 85.5839ZM940.369 95.7919V194H910.273V95.7919H940.369Z" fill="#EAEAEA"/>
<path d="M993.926 94.3839C1000.85 94.3839 1006.89 95.7919 1012.05 98.6079C1017.33 101.424 1021.38 105.12 1024.2 109.696V95.7919H1054.29V193.824C1054.29 202.859 1052.48 211.013 1048.84 218.288C1045.32 225.68 1039.86 231.547 1032.47 235.888C1025.2 240.229 1016.1 242.4 1005.19 242.4C990.641 242.4 978.849 238.939 969.814 232.016C960.78 225.211 955.617 215.941 954.326 204.208H984.07C985.009 207.963 987.238 210.896 990.758 213.008C994.278 215.237 998.62 216.352 1003.78 216.352C1010 216.352 1014.93 214.533 1018.57 210.896C1022.32 207.376 1024.2 201.685 1024.2 193.824V179.92C1021.26 184.496 1017.22 188.251 1012.05 191.184C1006.89 194 1000.85 195.408 993.926 195.408C985.83 195.408 978.497 193.355 971.926 189.248C965.356 185.024 960.134 179.099 956.262 171.472C952.508 163.728 950.63 154.811 950.63 144.72C950.63 134.629 952.508 125.771 956.262 118.144C960.134 110.517 965.356 104.651 971.926 100.544C978.497 96.4373 985.83 94.3839 993.926 94.3839ZM1024.2 144.896C1024.2 137.387 1022.09 131.461 1017.86 127.12C1013.76 122.779 1008.71 120.608 1002.73 120.608C996.742 120.608 991.638 122.779 987.414 127.12C983.308 131.344 981.254 137.211 981.254 144.72C981.254 152.229 983.308 158.213 987.414 162.672C991.638 167.013 996.742 169.184 1002.73 169.184C1008.71 169.184 1013.76 167.013 1017.86 162.672C1022.09 158.331 1024.2 152.405 1024.2 144.896Z" fill="#EAEAEA"/>
<path d="M1127.87 94.7359C1139.13 94.7359 1148.17 98.4906 1154.97 106C1161.78 113.392 1165.18 123.6 1165.18 136.624V194H1135.26V140.672C1135.26 134.101 1133.56 128.997 1130.16 125.36C1126.76 121.723 1122.18 119.904 1116.43 119.904C1110.68 119.904 1106.1 121.723 1102.7 125.36C1099.3 128.997 1097.6 134.101 1097.6 140.672V194H1067.5V63.7599H1097.6V108.992C1100.65 104.651 1104.81 101.189 1110.09 98.6079C1115.37 96.0266 1121.3 94.7359 1127.87 94.7359Z" fill="#EAEAEA"/>
<path d="M1232.77 168.48V194H1217.45C1206.54 194 1198.04 191.36 1191.93 186.08C1185.83 180.683 1182.78 171.941 1182.78 159.856V120.784H1170.81V95.7919H1182.78V71.8559H1212.88V95.7919H1232.59V120.784H1212.88V160.208C1212.88 163.141 1213.58 165.253 1214.99 166.544C1216.4 167.835 1218.75 168.48 1222.03 168.48H1232.77Z" fill="#EAEAEA"/>
<path d="M1280.41 70.728V75.66H1273.72V96H1267.56V75.66H1260.86V70.728H1280.41Z" fill="#EAEAEA"/>
<path d="M1312.12 70.728V96H1305.97V80.844L1300.31 96H1295.35L1289.66 80.808V96H1283.5V70.728H1290.77L1297.87 88.224L1304.89 70.728H1312.12Z" fill="#EAEAEA"/>
<g filter="url(#filter0_f)">
<ellipse cx="144.935" cy="145.215" rx="143.935" ry="144.215" fill="#F9E3A7"/>
</g>
<path d="M251.315 48.4214C259.544 56.8252 301.737 98.0939 288.421 182.432C281.187 199.929 263.284 231.504 246.712 247.191C236.203 274.874 217.479 271.205 200.016 278.453C177.701 285.079 161.093 294.833 144.934 289.431C126.032 289.431 107.316 285.7 89.8525 278.453C72.3895 271.205 56.5222 260.583 43.1565 247.191C29.7909 233.799 18.9533 218.148 11.9553 200.404C3.69201 184.983 56.0805 254.716 56.0805 235.777L130.72 253.414H168.574L211.815 235.777L246.712 200.404L263.284 177.48L272.86 148.067V126.757L269.868 103.496L251.315 48.4214Z" fill="#DAC696"/>
<path d="M121.737 242.61C121.737 252.969 113.498 261.361 103.341 261.361C93.1841 261.361 84.9451 252.969 84.9451 242.61C84.9451 232.251 93.1841 223.858 103.341 223.858C113.498 223.858 121.737 232.251 121.737 242.61Z" fill="#DAC696" stroke="#F9E3A7" stroke-width="0.314034"/>
<path d="M273.204 93.4418C273.204 101.176 267.02 107.444 259.394 107.444C251.768 107.444 245.584 101.176 245.584 93.4418C245.584 85.7076 251.768 79.4401 259.394 79.4401C267.02 79.4401 273.204 85.7076 273.204 93.4418Z" fill="#DAC696" stroke="#F9E3A7" stroke-width="0.209356"/>
<path d="M269.264 185.583C269.264 195.942 261.025 204.335 250.868 204.335C240.711 204.335 232.472 195.942 232.472 185.583C232.472 175.224 240.711 166.832 250.868 166.832C261.025 166.832 269.264 175.224 269.264 185.583Z" fill="#F9E3A7" stroke="#F9E3A7" stroke-width="0.314034"/>
<path d="M190.262 22.9101C190.262 29.6218 184.904 35.0586 178.3 35.0586C171.696 35.0586 166.338 29.6218 166.338 22.9101C166.338 16.1983 171.696 10.7615 178.3 10.7615C184.904 10.7615 190.262 16.1983 190.262 22.9101Z" fill="#DAC696" stroke="#F6E3AE" stroke-width="0.314034"/>
<path d="M211.788 234.956C211.788 253.841 196.792 269.144 178.301 269.144C159.811 269.144 144.815 253.841 144.815 234.956C144.815 216.071 159.811 200.768 178.301 200.768C196.792 200.768 211.788 216.071 211.788 234.956Z" fill="#DAC696" stroke="#F9E3A7" stroke-width="0.355905"/>
<defs>
<filter id="filter0_f" x="0.685966" y="0.685966" width="288.499" height="289.059" filterUnits="userSpaceOnUse" color-interpolation-filters="sRGB">
<feFlood flood-opacity="0" result="BackgroundImageFix"/>
<feBlend mode="normal" in="SourceGraphic" in2="BackgroundImageFix" result="shape"/>
<feGaussianBlur stdDeviation="0.157017" result="effect1_foregroundBlur"/>
</filter>
</defs>
</svg>
