<svg width="6457" height="1331" viewBox="0 0 6457 1331" fill="none" xmlns="http://www.w3.org/2000/svg">
<path d="M2154.3 353.214V976H2002.59V602.506L1863.31 976H1740.88L1600.71 601.618V976H1449V353.214H1628.21L1802.98 784.373L1975.98 353.214H2154.3ZM2487.66 983.097C2439.16 983.097 2395.4 972.747 2356.36 952.047C2317.92 931.346 2287.46 901.774 2264.99 863.331C2243.1 824.887 2232.16 779.938 2232.16 728.482C2232.16 677.619 2243.4 632.965 2265.87 594.521C2288.35 555.486 2319.1 525.618 2358.14 504.918C2397.17 484.218 2440.94 473.867 2489.44 473.867C2537.93 473.867 2581.7 484.218 2620.74 504.918C2659.77 525.618 2690.53 555.486 2713 594.521C2735.48 632.965 2746.71 677.619 2746.71 728.482C2746.71 779.346 2735.18 824.296 2712.11 863.331C2689.64 901.774 2658.59 931.346 2618.96 952.047C2579.93 972.747 2536.16 983.097 2487.66 983.097ZM2487.66 851.798C2516.64 851.798 2541.19 841.152 2561.3 819.86C2582 798.568 2592.35 768.109 2592.35 728.482C2592.35 688.856 2582.29 658.397 2562.18 637.105C2542.67 615.813 2518.42 605.167 2489.44 605.167C2459.86 605.167 2435.32 615.813 2415.8 637.105C2396.28 657.805 2386.53 688.264 2386.53 728.482C2386.53 768.109 2395.99 798.568 2414.92 819.86C2434.43 841.152 2458.68 851.798 2487.66 851.798ZM3051.47 983.097C3002.97 983.097 2959.2 972.747 2920.17 952.047C2881.73 931.346 2851.27 901.774 2828.79 863.331C2806.91 824.887 2795.97 779.938 2795.97 728.482C2795.97 677.619 2807.2 632.965 2829.68 594.521C2852.15 555.486 2882.91 525.618 2921.94 504.918C2960.98 484.218 3004.74 473.867 3053.24 473.867C3101.74 473.867 3145.51 484.218 3184.54 504.918C3223.58 525.618 3254.33 555.486 3276.81 594.521C3299.28 632.965 3310.52 677.619 3310.52 728.482C3310.52 779.346 3298.99 824.296 3275.92 863.331C3253.45 901.774 3222.39 931.346 3182.77 952.047C3143.73 972.747 3099.97 983.097 3051.47 983.097ZM3051.47 851.798C3080.45 851.798 3104.99 841.152 3125.1 819.86C3145.8 798.568 3156.15 768.109 3156.15 728.482C3156.15 688.856 3146.1 658.397 3125.99 637.105C3106.47 615.813 3082.22 605.167 3053.24 605.167C3023.67 605.167 2999.13 615.813 2979.61 637.105C2960.09 657.805 2950.33 688.264 2950.33 728.482C2950.33 768.109 2959.8 798.568 2978.72 819.86C2998.24 841.152 3022.49 851.798 3051.47 851.798ZM3691.57 475.642C3749.53 475.642 3795.66 494.568 3829.97 532.42C3864.86 569.681 3882.31 621.136 3882.31 686.786V976H3731.49V707.191C3731.49 674.07 3722.92 648.342 3705.77 630.008C3688.61 611.673 3665.55 602.506 3636.57 602.506C3607.59 602.506 3584.52 611.673 3567.37 630.008C3550.22 648.342 3541.64 674.07 3541.64 707.191V976H3389.94V480.965H3541.64V546.615C3557.02 524.731 3577.72 507.58 3603.74 495.159C3629.76 482.148 3659.04 475.642 3691.57 475.642ZM4138.37 319.502V976H3986.66V319.502H4138.37ZM4323.54 429.509C4296.92 429.509 4275.04 421.821 4257.89 406.443C4241.33 390.474 4233.05 370.957 4233.05 347.891C4233.05 324.233 4241.33 304.716 4257.89 289.338C4275.04 273.369 4296.92 265.385 4323.54 265.385C4349.56 265.385 4370.85 273.369 4387.41 289.338C4404.56 304.716 4413.14 324.233 4413.14 347.891C4413.14 370.957 4404.56 390.474 4387.41 406.443C4370.85 421.821 4349.56 429.509 4323.54 429.509ZM4398.95 480.965V976H4247.24V480.965H4398.95ZM4695.9 473.867C4730.79 473.867 4761.25 480.965 4787.27 495.159C4813.89 509.354 4834.29 527.984 4848.49 551.05V480.965H5000.19V975.113C5000.19 1020.65 4991.03 1061.76 4972.69 1098.43C4954.95 1135.69 4927.45 1165.26 4890.19 1187.14C4853.52 1209.03 4807.68 1219.97 4752.68 1219.97C4679.34 1219.97 4619.9 1202.52 4574.36 1167.63C4528.82 1133.32 4502.79 1086.6 4496.29 1027.46H4646.22C4650.95 1046.38 4662.19 1061.17 4679.93 1071.81C4697.67 1083.05 4719.55 1088.67 4745.58 1088.67C4776.92 1088.67 4801.77 1079.5 4820.1 1061.17C4839.03 1043.42 4848.49 1014.74 4848.49 975.113V905.027C4833.7 928.093 4813.3 947.019 4787.27 961.805C4761.25 976 4730.79 983.097 4695.9 983.097C4655.09 983.097 4618.12 972.747 4585 952.047C4551.88 930.755 4525.56 900.887 4506.05 862.444C4487.12 823.408 4477.66 778.459 4477.66 727.595C4477.66 676.731 4487.12 632.078 4506.05 593.634C4525.56 555.19 4551.88 525.618 4585 504.918C4618.12 484.218 4655.09 473.867 4695.9 473.867ZM4848.49 728.482C4848.49 690.63 4837.84 660.762 4816.55 638.879C4795.85 616.996 4770.42 606.054 4740.26 606.054C4710.09 606.054 4684.36 616.996 4663.07 638.879C4642.37 660.171 4632.02 689.743 4632.02 727.595C4632.02 765.447 4642.37 795.611 4663.07 818.086C4684.36 839.969 4710.09 850.91 4740.26 850.91C4770.42 850.91 4795.85 839.969 4816.55 818.086C4837.84 796.202 4848.49 766.335 4848.49 728.482ZM5413.18 475.642C5469.95 475.642 5515.49 494.568 5549.8 532.42C5584.1 569.681 5601.25 621.136 5601.25 686.786V976H5450.44V707.191C5450.44 674.07 5441.86 648.342 5424.71 630.008C5407.56 611.673 5384.49 602.506 5355.51 602.506C5326.53 602.506 5303.46 611.673 5286.31 630.008C5269.16 648.342 5260.58 674.07 5260.58 707.191V976H5108.88V319.502H5260.58V547.502C5275.96 525.618 5296.96 508.171 5323.57 495.159C5350.19 482.148 5380.05 475.642 5413.18 475.642ZM5981.51 847.362V976H5904.33C5849.33 976 5806.45 962.693 5775.69 936.078C5744.94 908.872 5729.56 864.809 5729.56 803.891V606.941H5669.23V480.965H5729.56V360.311H5881.27V480.965H5980.63V606.941H5881.27V805.665C5881.27 820.451 5884.81 831.097 5891.91 837.603C5899.01 844.109 5910.84 847.362 5927.4 847.362H5981.51Z" fill="#EAEAEA"/>
<rect y="108" width="1184" height="1184" rx="238" fill="#181727"/>
<path d="M312 700C312 854.64 437.36 980 592 980L592 420C437.36 420 312 545.36 312 700Z" fill="#F9E3A7"/>
<path d="M872 700C872 545.36 746.64 420 592 420L592 980C746.64 980 872 854.64 872 700Z" fill="#F9E3A7"/>
<path d="M452.7 564.235C472.324 583.859 472.445 615.2 453.407 634.238C434.369 653.277 403.028 653.155 383.403 633.531C363.779 613.907 363.658 582.566 382.696 563.528C401.735 544.489 433.076 544.61 452.7 564.235Z" fill="#DAC696" stroke="#F9E3A7" stroke-width="17"/>
<path d="M620.977 786.768C629.275 795.066 629.24 808.204 621.33 816.113C613.421 824.022 600.284 824.058 591.985 815.759C583.687 807.461 583.722 794.324 591.632 786.414C599.541 778.505 612.678 778.47 620.977 786.768Z" fill="#DAC696" stroke="#F9E3A7" stroke-width="17"/>
<path d="M464.367 799.347C478.295 813.276 478.324 835.594 464.72 849.198C451.116 862.802 428.798 862.773 414.869 848.844C400.941 834.916 400.912 812.597 414.516 798.993C428.119 785.39 450.438 785.418 464.367 799.347Z" fill="#DAC696" stroke="#F9E3A7" stroke-width="17"/>
<path d="M744.367 799.347C758.295 813.276 758.324 835.594 744.72 849.198C731.116 862.802 708.798 862.773 694.869 848.844C680.941 834.916 680.912 812.597 694.516 798.993C708.119 785.39 730.438 785.418 744.367 799.347Z" fill="#DAC696" stroke="#F9E3A7" stroke-width="17"/>
<circle cx="592" cy="700" r="291.5" stroke="url(#paint0_radial_3373_87)" stroke-width="121"/>
<path d="M6192.4 376.6V404H6155.2V517H6121V404H6083.8V376.6H6192.4ZM6368.56 376.6V517H6334.36V432.8L6302.96 517H6275.36L6243.76 432.6V517H6209.56V376.6H6249.96L6289.36 473.8L6328.36 376.6H6368.56Z" fill="#EAEAEA"/>
<defs>
<radialGradient id="paint0_radial_3373_87" cx="0" cy="0" r="1" gradientUnits="userSpaceOnUse" gradientTransform="translate(592 700) rotate(90) scale(352)">
<stop stop-color="#F9E3A7"/>
<stop offset="1" stop-color="#F9E3A7" stop-opacity="0"/>
</radialGradient>
</defs>
</svg>
