<?xml version="1.0" standalone="no"?>
<!DOCTYPE svg PUBLIC "-//W3C//DTD SVG 1.1//EN" "http://www.w3.org/Graphics/SVG/1.1/DTD/svg11.dtd" >
<svg xmlns="http://www.w3.org/2000/svg">
<metadata>Generated by IcoMoon</metadata>
<defs>
<font id="icomoon" horiz-adv-x="1024">
<font-face units-per-em="1024" ascent="960" descent="-64" />
<missing-glyph horiz-adv-x="1024" />
<glyph unicode="&#x20;" horiz-adv-x="512" d="" />
<glyph unicode="&#xe900;" glyph-name="arrow-bottom" horiz-adv-x="2048" d="M1024-64l-1024 1024h2048z" />
<glyph unicode="&#xe901;" glyph-name="arrow-left" horiz-adv-x="512" d="M0 448l512 512v-1024z" />
<glyph unicode="&#xe902;" glyph-name="arrow-right" horiz-adv-x="512" d="M512 448l-512-512v1024z" />
<glyph unicode="&#xe903;" glyph-name="arrow-top" horiz-adv-x="2048" d="M1024 960l1024-1024h-2048z" />
<glyph unicode="&#xe904;" glyph-name="angle-bottom" horiz-adv-x="2058" d="M1092.61-43.417l939.953 879.92c14.969 12.267 24.446 30.755 24.446 51.457s-9.477 39.191-24.329 51.364l-0.117 0.093c-16.41 13.61-37.686 21.868-60.891 21.868s-44.481-8.258-61.050-21.995l0.159 0.128-883.35-825.032-883.35 825.032c-16.41 13.61-37.686 21.868-60.891 21.868s-44.481-8.258-61.050-21.995l0.159 0.128c-14.969-12.267-24.446-30.755-24.446-51.457s9.477-39.191 24.329-51.364l0.117-0.093 939.953-879.92c18.16-12.868 40.77-20.57 65.179-20.57s47.020 7.702 65.534 20.808l-0.354-0.238z" />
<glyph unicode="&#xe905;" glyph-name="angle-top" horiz-adv-x="2038" d="M950.978 939.622l-930.6-874.561c-14.876-12.784-24.239-31.62-24.239-52.643s9.363-39.86 24.148-52.566l0.092-0.077c16.523-12.718 37.509-20.383 60.285-20.383s43.762 7.665 60.519 20.556l-0.234-0.173 874.561 823.615 874.561-823.615c16.523-12.718 37.509-20.383 60.285-20.383s43.762 7.665 60.519 20.556l-0.234-0.173c14.876 12.784 24.239 31.62 24.239 52.643s-9.363 39.86-24.148 52.566l-0.092 0.077-930.6 874.561c-17.979 12.74-40.364 20.366-64.531 20.366s-46.552-7.625-64.881-20.601l0.351 0.236z" />
<glyph unicode="&#xe906;" glyph-name="chat" d="M525.299 960c-272.55-3.75-492.052-225.57-492.052-498.657 0-0.016 0-0.031 0-0.047v0.002c-0.011-1.236-0.018-2.698-0.018-4.16 0-86.227 22.18-167.274 61.145-237.747l-1.283 2.53-93.091-285.922 299.221 79.792 53.195-19.948c51.214-20.31 110.516-32.44 172.55-33.243l0.333-0.003c275.425 0 498.701 223.276 498.701 498.701s-223.276 498.701-498.701 498.701v0zM525.299 15.792h-66.494c13.299 13.299 19.948 26.597 13.299 39.896 0.077 0.847 0.121 1.833 0.121 2.828 0 18.362-14.885 33.247-33.247 33.247-4.857 0-9.47-1.041-13.629-2.913l0.21 0.084-99.74-19.948h-33.247l-212.779-53.195 73.143 206.13v13.299c-37.628 63.968-59.854 140.91-59.854 223.044 0 1.067 0.004 2.133 0.011 3.198l-0.001-0.164c0 0.059 0 0.129 0 0.199 0 241.37 191.95 437.908 431.529 445.291l0.679 0.017c246.046 0 445.506-199.46 445.506-445.506s-199.46-445.506-445.506-445.506v0zM777.974 354.909h-485.403c-14.689 0-26.597-11.908-26.597-26.597v0c0-13.299 13.299-33.247 26.597-33.247h485.403c18.362 0 33.247 14.885 33.247 33.247v0c-3.199 15.287-16.566 26.604-32.576 26.604-0.236 0-0.471-0.002-0.705-0.007l0.035 0.001zM777.974 494.545h-485.403c-14.689 0-26.597-11.908-26.597-26.597v0c-0.004-0.2-0.007-0.435-0.007-0.67 0-16.010 11.317-29.377 26.388-32.538l0.216-0.038h485.403c18.362 0 33.247 14.885 33.247 33.247v0c-3.199 15.287-16.566 26.604-32.576 26.604-0.236 0-0.471-0.002-0.705-0.007l0.035 0.001zM292.571 574.338h265.974c15.287 3.199 26.604 16.566 26.604 32.576 0 0.236-0.002 0.471-0.007 0.705l0.001-0.035c0 14.689-11.908 26.597-26.597 26.597h-265.974c-14.689 0-26.597-11.908-26.597-26.597v0c-0.004-0.2-0.007-0.435-0.007-0.67 0-16.010 11.317-29.377 26.388-32.538l0.216-0.038z" />
<glyph unicode="&#xe907;" glyph-name="board" d="M1024-64h-481.042v481.042h481.042zM614.4 7.442h338.158v338.158h-338.158zM481.042-64h-481.042v481.042h481.042zM71.442 7.442h338.158v338.158h-338.158zM1024 478.958h-481.042v481.042h481.042zM614.4 550.4h338.158v338.158h-338.158zM481.042 478.958h-481.042v481.042h481.042zM71.442 550.4h338.158v338.158h-338.158z" />
<glyph unicode="&#xe908;" glyph-name="drag" horiz-adv-x="2779" d="M1097.143 535.771h-819.2l292.571 292.571c12.929 13.182 20.908 31.259 20.908 51.2s-7.98 38.018-20.92 51.212l0.011-0.012c-29.257 29.257-73.143 43.886-102.4 0h-14.629l-424.229-424.229c-22.548-12.751-37.519-36.568-37.519-63.882 0-20.918 8.781-39.785 22.857-53.116l0.033-0.031h14.629l424.229-424.229c15.456-13.87 35.995-22.35 58.514-22.35s43.058 8.481 58.596 22.423l-0.082-0.072c12.929 13.182 20.908 31.259 20.908 51.2s-7.98 38.018-20.92 51.212l0.011-0.012-292.571 292.571h819.2c0.365-0.005 0.795-0.009 1.226-0.009 43.31 0 79.294 31.369 86.47 72.627l0.075 0.524c0.782 4.401 1.229 9.467 1.229 14.637 0 48.475-39.297 87.771-87.771 87.771-0.432 0-0.864-0.003-1.294-0.009l0.065 0.001zM2750.171 506.514v0l-438.857 424.229c-10.176 18.134-29.28 30.186-51.2 30.186s-41.024-12.053-51.048-29.892l-0.152-0.294c-18.134-10.176-30.186-29.28-30.186-51.2s12.053-41.024 29.892-51.048l0.294-0.152 292.571-292.571h-819.2c-48.475 0-87.771-39.297-87.771-87.771v0c4.262-22.833 14.628-42.749 29.325-58.589l-0.068 0.074h877.714l-292.571-292.571c-43.886-43.886-43.886-87.771 0-117.029 13.182-12.929 31.259-20.908 51.2-20.908s38.018 7.98 51.212 20.92l-0.012-0.011 438.857 424.229c10.303 14.202 16.481 31.98 16.481 51.2s-6.178 36.998-16.657 51.455l0.176-0.255z" />
<glyph unicode="&#xe909;" glyph-name="zoomin" d="M1024 374.857h-438.857v-438.857h-146.286v438.857h-438.857v146.286h438.857v438.857h146.286v-438.857h438.857v-146.286z" />
<glyph unicode="&#xe90a;" glyph-name="zoomout" horiz-adv-x="15360" d="M0 960h15360v-1024h-15360v1024z" />
<glyph unicode="&#xe90b;" glyph-name="time2" d="M512 961.024c282.75-0.401 511.808-229.706 511.808-512.512 0-283.053-229.459-512.512-512.512-512.512-141.224 0-269.106 57.12-361.805 149.517l0.013-0.013c-92.386 92.947-149.489 221.053-149.489 362.496s57.104 269.549 149.515 362.522l-0.026-0.026c92.857 92.693 220.93 150.136 362.421 150.528h0.075zM773.12 475.648c15.27 0 27.648-12.378 27.648-27.648s-12.378-27.648-27.648-27.648h-261.12c-10.396 0.326-19.415 5.928-24.502 14.207l-0.074 0.129-1.024 1.024v2.048l-1.024 1.024v1.024l-1.024 1.024v340.992c0 15.27 12.378 27.648 27.648 27.648s27.648-12.378 27.648-27.648v0-306.176h233.472zM834.56 771.584c-82.762 82.876-197.159 134.144-323.529 134.144-252.513 0-457.216-204.703-457.216-457.216s204.703-457.216 457.216-457.216c126.37 0 240.766 51.268 323.524 134.139l0.005 0.005c82.876 82.592 134.155 196.844 134.155 323.072s-51.279 240.48-134.142 323.059l-0.013 0.013z" />
<glyph unicode="&#xe90c;" glyph-name="today" d="M1000.107 791.893c-14.159 13.727-33.491 22.189-54.8 22.189-0.234 0-0.469-0.001-0.703-0.003h-78.471v54.613c0.007 0.415 0.012 0.905 0.012 1.395 0 25.304-11.204 47.991-28.922 63.37l-0.103 0.088c-17.192 16.403-40.528 26.497-66.222 26.497-1.019 0-2.034-0.016-3.046-0.047l0.148 0.004h-39.253c-0.719 0.019-1.566 0.029-2.415 0.029-26.116 0-49.88-10.071-67.621-26.54l0.063 0.058c-17.821-15.468-29.025-38.154-29.025-63.458 0-0.491 0.004-0.98 0.013-1.469l-0.001 0.074v-54.613h-236.373v54.613c0.007 0.415 0.012 0.905 0.012 1.395 0 25.304-11.204 47.991-28.922 63.37l-0.103 0.088c-17.387 16.401-40.891 26.482-66.75 26.482-0.833 0-1.664-0.010-2.492-0.031l0.123 0.002h-39.253c-0.719 0.019-1.566 0.029-2.415 0.029-26.116 0-49.88-10.071-67.621-26.54l0.063 0.058c-17.821-15.468-29.025-38.154-29.025-63.458 0-0.491 0.004-0.98 0.013-1.469l-0.001 0.074v-54.613h-78.507c-0.198 0.002-0.432 0.003-0.667 0.003-21.309 0-40.641-8.462-54.82-22.209l0.020 0.020c-14.161-12.567-23.040-30.815-23.040-51.136 0-0.022 0-0.045 0-0.067v0.003-731.307c-0.002-0.202-0.003-0.441-0.003-0.68 0-20.132 8.892-38.187 22.963-50.452l0.080-0.068c14.159-13.727 33.491-22.189 54.8-22.189 0.234 0 0.469 0.001 0.703 0.003h866.097c0.198-0.002 0.432-0.003 0.667-0.003 21.309 0 40.641 8.462 54.82 22.209l-0.020-0.020c14.635 12.016 23.899 30.11 23.899 50.367 0 0.293-0.002 0.585-0.006 0.877v-0.044 731.307c0 0.081 0.001 0.177 0.001 0.273 0 20.427-9.25 38.694-23.789 50.841l-0.105 0.085zM709.12 868.693c-0.007 0.179-0.011 0.39-0.011 0.602 0 4.778 1.963 9.098 5.128 12.196l0.003 0.003c3.538 3.195 8.249 5.15 13.417 5.15 0.383 0 0.764-0.011 1.142-0.032l-0.052 0.002h39.253c0.156 0.005 0.341 0.007 0.525 0.007 5.072 0 9.688-1.949 13.141-5.139l-0.013 0.012c3.656-2.836 5.986-7.23 5.986-12.168 0-0.222-0.005-0.443-0.014-0.663l0.001 0.031v-164.693c0.008-0.189 0.013-0.41 0.013-0.632 0-4.938-2.33-9.332-5.951-12.142l-0.035-0.026c-3.44-3.178-8.056-5.127-13.128-5.127-0.185 0-0.369 0.003-0.552 0.008l0.027-0.001h-39.253c-0.326-0.019-0.706-0.030-1.090-0.030-5.168 0-9.879 1.955-13.435 5.165l0.018-0.016c-3.167 3.101-5.131 7.42-5.131 12.198 0 0.212 0.004 0.422 0.011 0.632l-0.001-0.030v164.693zM236.373 868.693c-0.007 0.179-0.011 0.39-0.011 0.602 0 4.778 1.963 9.098 5.128 12.196l0.003 0.003c3.538 3.195 8.249 5.15 13.417 5.15 0.383 0 0.764-0.011 1.142-0.032l-0.052 0.002h39.253c0.313 0.019 0.678 0.030 1.046 0.030 4.91 0 9.362-1.966 12.61-5.153l-0.003 0.003c3.656-2.836 5.986-7.23 5.986-12.168 0-0.222-0.005-0.443-0.014-0.663l0.001 0.031v-164.693c0.008-0.189 0.013-0.41 0.013-0.632 0-4.938-2.33-9.332-5.951-12.142l-0.035-0.026c-3.245-3.185-7.697-5.15-12.607-5.15-0.368 0-0.733 0.011-1.096 0.033l0.050-0.002h-39.253c-0.326-0.019-0.706-0.030-1.090-0.030-5.168 0-9.879 1.955-13.435 5.165l0.018-0.016c-3.167 3.101-5.131 7.42-5.131 12.198 0 0.212 0.004 0.422 0.011 0.632l-0.001-0.030v164.693zM944.64 9.387h-866.133v585.387h866.133v-585.387zM426.667 362.667h170.667v-170.667h-170.667v170.667z" />
<glyph unicode="&#xe90d;" glyph-name="user" horiz-adv-x="871" d="M433.006 408.503h6.583c1.556-0.045 3.386-0.071 5.222-0.071 57.135 0 108.475 24.815 143.829 64.254l0.16 0.182c43.235 61.554 69.095 138.046 69.095 220.578 0 15.575-0.921 30.934-2.711 46.027l0.176-1.827c0.117 2.658 0.184 5.776 0.184 8.91 0 77.203-40.629 144.917-101.672 182.926l-0.912 0.529c-32.842 18.78-72.164 29.892-114.075 29.989h-3.685c-0.234 0.001-0.511 0.001-0.788 0.001-41.589 0-80.644-10.847-114.491-29.866l1.177 0.608c-62.776-38.27-104.051-106.365-104.051-184.101 0-3.164 0.068-6.312 0.204-9.442l-0.015 0.446c-1.614-13.266-2.535-28.625-2.535-44.199 0-82.532 25.859-159.024 69.918-221.816l-0.823 1.238c35.515-39.622 86.854-64.436 143.989-64.436 1.836 0 3.667 0.026 5.491 0.077l-0.268-0.006zM273.554 732.526v1.463c-0.416 4.262-0.654 9.213-0.654 14.219 0 85.558 69.359 154.917 154.917 154.917 2.597 0 5.179-0.064 7.744-0.19l-0.361 0.014h2.194c1.815 0.076 3.946 0.119 6.086 0.119 85.841 0 155.429-69.588 155.429-155.429 0-4.806-0.218-9.56-0.645-14.255l0.044 0.604c0.057-0.583 0.327-1.094 0.73-1.461l0.002-0.002c1.286-11.088 2.019-23.936 2.019-36.955 0-68.66-20.402-132.554-55.474-185.952l0.792 1.284c-25.587-27.988-62.258-45.476-103.013-45.476-2.1 0-4.188 0.046-6.265 0.138l0.295-0.010h-2.194c-1.782-0.081-3.87-0.128-5.97-0.128-40.755 0-77.426 17.488-102.917 45.37l-0.096 0.107c-34.293 52.056-54.704 115.898-54.704 184.506 0 13.076 0.741 25.98 2.185 38.67l-0.144-1.553zM871.863 146.651v5.851c0.762 6 1.197 12.943 1.197 19.987 0 66.915-39.256 124.662-95.995 151.466l-1.019 0.433c-0.097-0.012-0.209-0.019-0.323-0.019-0.726 0-1.386 0.286-1.872 0.752l0.001-0.001c-67.016 18.448-125.674 45.736-178.462 81.105l2.187-1.38c-4.583 3.257-10.292 5.207-16.457 5.207-15.802 0-28.612-12.81-28.612-28.612 0-9.637 4.765-18.162 12.067-23.346l0.089-0.060c55.622-37.7 120.11-67.981 189.153-87.381l4.676-1.122c34.905-19.57 58.107-56.334 58.107-98.516 0-7.061-0.65-13.97-1.894-20.67l0.107 0.694v-5.12c0.052-2.344 0.082-5.106 0.082-7.876 0-20.457-1.626-40.534-4.755-60.109l0.284 2.156c-103.819-54.949-226.942-87.208-357.599-87.208-5.682 0-11.35 0.061-17.004 0.182l0.843-0.014c-3.963-0.072-8.637-0.112-13.32-0.112-131.612 0-255.697 32.228-364.794 89.223l4.354-2.071c-3.268 18.75-5.136 40.342-5.136 62.37 0 1.216 0.006 2.431 0.017 3.644l-0.001-0.186c0 1.463 0.731 2.926 0.731 5.12-1.211 6.169-1.903 13.263-1.903 20.518 0 42.057 23.276 78.678 57.65 97.683l0.573 0.291c73.72 21.152 138.134 51.373 196.398 90.11l-2.57-1.607c7.214 5.39 11.834 13.907 11.834 23.504 0 6.26-1.966 12.060-5.314 16.818l0.062-0.093c-5.025 7.38-13.387 12.163-22.866 12.163-6.277 0-12.064-2.097-16.699-5.629l0.067 0.049c-50.647-33.613-109.255-60.862-171.846-78.65l-4.428-1.076c-0.731 0-1.463-0.731-2.194-0.731-57.775-26.908-97.104-84.48-97.104-151.238 0-7.279 0.468-14.448 1.374-21.48l-0.088 0.832v-5.851c-0.235-4.526-0.368-9.826-0.368-15.156 0-28.686 3.872-56.467 11.122-82.851l-0.513 2.19c2.276-5.511 6.070-10.012 10.86-13.099l0.111-0.067c120.095-64.049 262.649-101.665 413.989-101.665s293.894 37.616 418.823 104.009l-4.835-2.344c5.086 2.942 8.95 7.516 10.918 12.995l0.054 0.171c6.651 25.011 10.471 53.726 10.471 83.333 0 4.391-0.084 8.761-0.25 13.111l0.019-0.627z" />
<glyph unicode="&#xe90e;" glyph-name="week" d="M1000.594 791.771c-14.090 13.583-33.288 21.951-54.44 21.951-0.404 0-0.807-0.003-1.209-0.009l0.061 0.001h-78.994v54.857c0.003 0.263 0.005 0.573 0.005 0.884 0 25.44-10.979 48.316-28.457 64.148l-0.073 0.066c-17.617 16.334-41.289 26.355-67.302 26.355-0.768 0-1.534-0.009-2.298-0.026l0.114 0.002h-39.497c-0.65 0.015-1.416 0.024-2.184 0.024-26.012 0-49.684-10.021-67.365-26.414l0.064 0.058c-17.975-15.793-29.259-38.829-29.259-64.5 0-0.21 0.001-0.419 0.002-0.629v0.032-54.857h-236.251v54.857c0.001 0.119 0.001 0.259 0.001 0.399 0 25.732-11.28 48.83-29.165 64.618l-0.093 0.081c-17.719 16.335-41.481 26.351-67.582 26.351-0.695 0-1.388-0.007-2.080-0.021l0.103 0.002h-38.693c-0.605 0.013-1.318 0.021-2.032 0.021-26.084 0-49.827-10.017-67.595-26.414l0.068 0.062c-17.975-15.781-29.259-38.806-29.259-64.467 0-0.221 0.001-0.443 0.003-0.664v0.034-54.857h-78.775c-0.338 0.005-0.737 0.008-1.136 0.008-21.087 0-40.219-8.371-54.253-21.971l0.020 0.020c-14.363-12.31-23.407-30.47-23.407-50.744 0-0.16 0.001-0.321 0.002-0.481v0.025-731.429c0.025-20.408 9.052-38.703 23.324-51.13l0.082-0.070c14.014-13.58 33.146-21.951 54.233-21.951 0.399 0 0.798 0.003 1.196 0.009l-0.060-0.001h866.45c0.342-0.005 0.745-0.008 1.149-0.008 21.152 0 40.35 8.368 54.464 21.974l-0.024-0.023c14.279 12.551 23.279 30.812 23.406 51.178v731.451c0 0.073 0 0.16 0 0.247 0 20.308-8.977 38.52-23.179 50.883l-0.081 0.069zM708.754 868.571c-0.001 0.082-0.002 0.18-0.002 0.277 0 5.131 2.258 9.735 5.834 12.872l0.019 0.017c3.277 3.191 7.759 5.159 12.701 5.159 0.421 0 0.839-0.014 1.252-0.042l-0.056 0.003h39.497c0.286 0.016 0.62 0.024 0.957 0.024 10.21 0 18.519-8.14 18.791-18.285l0.001-0.025v-164.571c-0.071-5.203-2.305-9.87-5.84-13.155l-0.011-0.010c-3.719-3.177-8.581-5.112-13.895-5.12h-39.499c-5.316 0.008-10.178 1.943-13.927 5.145l0.030-0.025c-3.547 3.296-5.78 7.963-5.851 13.153v164.584zM236.105 868.571c-0.013 0.244-0.020 0.529-0.020 0.816 0 4.896 2.119 9.298 5.491 12.337l0.015 0.013c3.428 3.208 8.049 5.178 13.131 5.178 0.527 0 1.049-0.021 1.566-0.063l-0.068 0.004h39.351c0.354 0.024 0.766 0.037 1.182 0.037 5.015 0 9.572-1.964 12.942-5.165l-0.008 0.008c3.428-3.247 5.561-7.831 5.561-12.913 0-0.089-0.001-0.178-0.002-0.266v0.013-164.571c0.001-0.075 0.002-0.164 0.002-0.253 0-5.082-2.133-9.666-5.553-12.905l-0.008-0.008c-3.783-3.185-8.71-5.12-14.088-5.12-0.010 0-0.020 0-0.030 0h-39.568c-0.066-0.001-0.145-0.001-0.223-0.001-5.481 0-10.511 1.932-14.446 5.153l0.040-0.032c-3.386 3.31-5.486 7.924-5.486 13.028 0 0.048 0 0.097 0.001 0.145v-0.007 164.571zM945.006 9.143h-866.45v585.143h866.45v-585.143zM170.642 448h170.715v-341.577h-170.715v341.577zM426.642 448h170.715v-341.577h-170.715v341.577zM682.642 448h171.154v-341.577h-171.154v341.577z" />
<glyph unicode="&#xe90f;" glyph-name="planner" horiz-adv-x="951" d="M570.075 791.040v168.229h-189.733v-168.229l59.319-59.977v-714.606c-7.353-8.133-11.853-18.967-11.853-30.853 0-0.211 0.001-0.421 0.004-0.631v0.032c0-26.257 21.286-47.543 47.543-47.543s47.543 21.286 47.543 47.543v0c0.002 0.178 0.004 0.388 0.004 0.599 0 11.885-4.5 22.72-11.889 30.892l0.036-0.040v714.606zM581.998 574.537h225.28v-144.823h-225.28v144.823zM0.805 574.537h367.689v-144.823h-367.689v144.823zM581.998 285.623h367.616v-144.091h-367.616v144.091zM0.805 285.623h367.689v-144.091h-367.689v144.091z" />
<glyph unicode="&#xe910;" glyph-name="print2" horiz-adv-x="972" d="M821.394 750.080h-25.6v58.514c-0.249 83.269-67.809 150.675-151.113 150.675-0.103 0-0.206 0-0.309 0h-317.424c-83.165-0.125-150.55-67.51-150.674-150.662v-58.526h-24.137c-83.269-0.249-150.675-67.809-150.675-151.113 0-0.103 0-0.206 0-0.309v0.016-243.566c0-0.087 0-0.19 0-0.293 0-83.303 67.406-150.863 150.651-151.112h24.161v-191.634c0-0.022 0-0.047 0-0.073 0-41.567 33.697-75.264 75.264-75.264 0.026 0 0.051 0 0.077 0h468.11c0.022 0 0.047 0 0.073 0 41.567 0 75.264 33.697 75.264 75.264 0 0.026 0 0.051 0 0.077v-0.004 191.634h26.331c83.552 0.166 151.24 67.854 151.406 151.39v243.582c-0.166 83.552-67.854 151.24-151.39 151.406h-0.016zM233.326 808.594c0.083 51.673 41.95 93.54 93.615 93.623h316.717c51.838-0.040 93.899-41.844 94.354-93.58v-58.557h-504.686v58.514zM738.011 12.069c0-0.044 0.001-0.095 0.001-0.147 0-10.018-8.121-18.139-18.139-18.139-0.052 0-0.103 0-0.155 0.001h-468.106c-0.044 0-0.095-0.001-0.147-0.001-10.018 0-18.139 8.121-18.139 18.139 0 0.052 0 0.103 0.001 0.155v-0.008 315.977h504.686v-315.977zM915.749 355.109c-0.125-52.060-42.294-94.23-94.342-94.354h-25.612v67.291h37.303c15.754 0 28.526 12.771 28.526 28.526s-12.771 28.526-28.526 28.526h-699.246c-15.754 0-28.526-12.771-28.526-28.526s12.771-28.526 28.526-28.526h42.423v-67.291h-24.137c-51.779 0.455-93.583 42.516-93.623 94.35v243.57c0.37 51.557 42.066 93.253 93.588 93.623h669.292c51.838-0.040 93.899-41.844 94.354-93.58v-243.609zM302.811 186.88h363.52c0.003 0 0.006 0 0.009 0 15.901 0 28.839 12.685 29.247 28.488l0.001 0.038c-0.122 15.783-12.944 28.53-28.744 28.53-0.18 0-0.36-0.002-0.54-0.005h-363.493c-0.153 0.003-0.332 0.005-0.513 0.005-15.8 0-28.623-12.747-28.744-28.519v-0.012c0.409-15.841 13.347-28.526 29.248-28.526 0.003 0 0.006 0 0.010 0v0zM669.257 127.634h-364.983c-14.054-2.305-24.646-14.361-24.646-28.891s10.592-26.586 24.476-28.868l0.17-0.023h364.251c14.236 2.139 25.026 14.284 25.026 28.95 0 14.405-10.411 26.379-24.118 28.807l-0.176 0.026zM821.394 637.44h-58.514c-15.754 0-28.526-12.771-28.526-28.526s12.771-28.526 28.526-28.526h58.514c15.754 0 28.526 12.771 28.526 28.526s-12.771 28.526-28.526 28.526c0 0 0 0 0 0v0z" />
<glyph unicode="&#xe911;" glyph-name="save2" d="M996.937 788.114l-144.823 144.823c-16.223 16.267-38.659 26.332-63.445 26.332-0.067 0-0.133 0-0.2 0h-697.773c-0.022 0-0.047 0-0.073 0-49.646 0-89.893-40.246-89.893-89.893 0-0.026 0-0.052 0-0.077v0.004-842.606c0-0.022 0-0.047 0-0.073 0-49.646 40.246-89.893 89.893-89.893 0.026 0 0.052 0 0.077 0h842.602c0.022 0 0.047 0 0.073 0 49.646 0 89.893 40.246 89.893 89.893 0 0.026 0 0.052 0 0.077v-0.004 697.783c0 0.056 0 0.123 0 0.189 0 24.786-10.064 47.222-26.33 63.443l-0.002 0.002zM299.886 899.291h303.543v-149.943c0.36-16.415 13.573-29.629 29.955-29.988l0.034-0.001c16.529 0.083 29.906 13.46 29.989 29.981v149.951h59.977v-209.92c0-0.003 0-0.006 0-0.009 0-16.158-13.099-29.257-29.257-29.257-0.257 0-0.514 0.003-0.769 0.010l0.038-0.001h-363.52c-0.003 0-0.006 0-0.009 0-16.305 0-29.571 13.013-29.979 29.219l-0.001 0.038v209.92zM783.36-3.291h-543.451v299.886h543.451v-299.886zM783.36 356.571h-543.451v29.989c0.409 16.245 13.675 29.257 29.98 29.257 0.003 0 0.006 0 0.009 0h483.474c0.218 0.006 0.474 0.009 0.731 0.009 16.158 0 29.257-13.099 29.257-29.257 0-0.003 0-0.006 0-0.010v0.001-29.989zM963.291 26.697c-0.36-16.415-13.573-29.629-29.955-29.988l-0.034-0.001h-89.966v389.851c-0.29 49.345-40.359 89.235-89.745 89.235-0.078 0-0.155 0-0.233 0h-483.462c-49.199-0.207-89.027-40.035-89.234-89.214v-389.871h-89.966c-16.529 0.083-29.906 13.46-29.989 29.981v842.614c-0.001 0.087-0.001 0.191-0.001 0.294 0 16.401 13.295 29.696 29.696 29.696 0.103 0 0.207-0.001 0.31-0.002h149.195v-209.92c0.577-49.306 40.601-89.072 89.95-89.234h363.536c0.066 0 0.143 0 0.221 0 49.386 0 89.454 39.89 89.745 89.207v209.948h5.12c0.094 0.001 0.205 0.002 0.316 0.002 8.183 0 15.581-3.359 20.891-8.774l144.828-144.828c5.417-5.143 8.788-12.397 8.788-20.438 0-0.272-0.004-0.543-0.012-0.813l0.001 0.040v-697.783z" />
<glyph unicode="&#xe912;" glyph-name="mail" horiz-adv-x="1347" d="M1181.257 960h-1016.686c-0.065 0-0.142 0-0.22 0-90.769 0-164.352-73.583-164.352-164.352 0-0.077 0-0.154 0-0.232v0.012-694.857c0.125-90.84 73.731-164.447 164.559-164.571h1016.698c90.84 0.125 164.447 73.731 164.571 164.559v694.869c-0.125 90.84-73.731 164.447-164.559 164.571h-0.012zM1270.491 100.571c0.001-0.174 0.002-0.381 0.002-0.587 0-48.96-39.69-88.649-88.649-88.649-0.206 0-0.413 0.001-0.619 0.002h-1016.654c-0.043 0-0.095 0-0.146 0-49.202 0-89.088 39.886-89.088 89.088 0 0.051 0 0.103 0 0.154v-0.008 694.857c0.207 49.199 40.035 89.027 89.214 89.234h1016.706c49.199-0.207 89.027-40.035 89.234-89.214v-694.877zM848.457 456.777l329.143 295.497c7.675 6.838 12.485 16.749 12.485 27.783 0 9.584-3.629 18.321-9.588 24.912l0.029-0.032c-6.975 7.7-17.011 12.517-28.172 12.517-9.7 0-18.55-3.638-25.26-9.624l0.037 0.033-453.486-407.406-88.503 78.994c0 0.404-0.327 0.731-0.731 0.731v0c-1.786 2.15-3.702 4.066-5.78 5.794l-0.072 0.058-360.594 322.56c-6.429 5.293-14.746 8.503-23.813 8.503-20.763 0-37.595-16.832-37.595-37.595 0-10.706 4.475-20.366 11.656-27.213l0.015-0.014 332.8-298.423-331.337-310.126c-7.644-6.86-12.431-16.772-12.431-27.801 0-20.602 16.701-37.303 37.303-37.303 0.256 0 0.512 0.003 0.767 0.008l-0.038-0.001c0.229-0.005 0.498-0.008 0.768-0.008 9.562 0 18.281 3.612 24.865 9.546l-0.033-0.029 336.457 315.246 91.429-81.189c6.47-5.898 15.113-9.51 24.599-9.51 0.095 0 0.189 0 0.284 0.001h-0.015c0.229-0.005 0.498-0.008 0.768-0.008 9.562 0 18.281 3.612 24.865 9.546l-0.033-0.029 93.623 84.114 334.263-318.171c6.944-6.29 16.178-10.164 26.316-10.24h0.016c0.216-0.005 0.47-0.007 0.725-0.007 10.436 0 19.82 4.507 26.311 11.68l0.027 0.030c6.357 6.771 10.263 15.908 10.263 25.958 0 10.781-4.494 20.512-11.712 27.423l-0.014 0.013z" />
<glyph unicode="&#xe913;" glyph-name="mark" horiz-adv-x="1616" d="M1586.686 943.839c-15.346 12.369-35.080 19.853-56.562 19.853s-41.216-7.485-56.736-19.989l0.174 0.136-965.234-838.887-370.227 321.745c-15.307 13.153-35.367 21.162-57.297 21.162s-41.99-8.008-57.414-21.26l0.117 0.098c-14.181-11.807-23.141-29.465-23.141-49.217s8.96-37.41 23.038-49.133l0.103-0.084 427.524-371.696c15.607-12.359 35.58-19.827 57.297-19.827s41.69 7.467 57.491 19.975l-0.194-0.148 1021.062 887.369c14.81 11.754 24.223 29.753 24.223 49.951s-9.413 38.198-24.092 49.851l-0.131 0.101z" />
<glyph unicode="&#xe914;" glyph-name="export2" horiz-adv-x="979" d="M272.823 679.131c0.205-0.005 0.447-0.007 0.69-0.007 9.121 0 17.395 3.63 23.455 9.523l158.712 158.712v-577.097c0-0.022 0-0.047 0-0.073 0-18.542 15.031-33.573 33.573-33.573 0.026 0 0.051 0 0.077 0h-0.004c18.499 0.204 33.442 15.146 33.646 33.626v577.116l158.72-158.72c5.975-5.521 13.994-8.907 22.804-8.907 18.582 0 33.646 15.064 33.646 33.646 0 8.81-3.386 16.829-8.927 22.827l0.021-0.023-216.503 215.771c-6.079 6.095-14.485 9.865-23.771 9.865s-17.693-3.771-23.771-9.865l-215.772-215.772c-6.095-6.079-9.865-14.485-9.865-23.771s3.771-17.693 9.865-23.771l0.001-0.001c5.987-5.88 14.2-9.509 23.262-9.509 0.051 0 0.101 0 0.152 0h-0.008zM945.006 304.64h-305.737c-18.594-0.038-33.652-15.12-33.652-33.719 0-0.231 0.002-0.462 0.007-0.693l-0.001 0.034v-62.903c-0.003-0.153-0.004-0.335-0.004-0.516 0-18.299 14.834-33.134 33.134-33.134 0.181 0 0.363 0.001 0.543 0.004h-0.027c0.022 0 0.047 0 0.073 0 18.542 0 33.573 15.031 33.573 33.573 0 0.026 0 0.051 0 0.077v-0.004 29.257h238.446v-231.863h-844.8v231.863h239.177v-29.257c-0.003-0.153-0.004-0.335-0.004-0.516 0-18.299 14.834-33.134 33.134-33.134 0.181 0 0.363 0.001 0.543 0.004h-0.027c0.022 0 0.047 0 0.073 0 18.542 0 33.573 15.031 33.573 33.573 0 0.026 0 0.051 0 0.077v-0.004 62.903c0 0.066 0.001 0.145 0.001 0.223 0 18.685-15.003 33.866-33.619 34.154h-306.496c-18.644-0.288-33.646-15.469-33.646-34.154 0-0.078 0-0.157 0.001-0.235v0.012-299.886c0.204-18.499 15.146-33.442 33.626-33.646h912.11c0.066 0 0.145-0.001 0.223-0.001 18.685 0 33.866 15.003 34.154 33.619v299.913c0 0.022 0 0.047 0 0.073 0 18.946-15.358 34.304-34.304 34.304-0.026 0-0.051 0-0.077 0h0.004z" />
<glyph unicode="&#xe915;" glyph-name="filter" horiz-adv-x="1434" d="M1361.92-45.568h-958.464c-1.112-0.065-2.413-0.102-3.722-0.102-37.382 0-67.686 30.304-67.686 67.686s30.304 67.686 67.686 67.686c1.309 0 2.61-0.037 3.901-0.111l-0.179 0.008h958.464c1.112 0.065 2.413 0.102 3.722 0.102 37.382 0 67.686-30.304 67.686-67.686s-30.304-67.686-67.686-67.686c-1.309 0-2.61 0.037-3.901 0.111l0.179-0.008zM1361.92 380.416h-958.464c-1.112-0.065-2.413-0.102-3.722-0.102-37.382 0-67.686 30.304-67.686 67.686s30.304 67.686 67.686 67.686c1.309 0 2.61-0.037 3.901-0.111l-0.179 0.008h958.464c1.112 0.065 2.413 0.102 3.722 0.102 37.382 0 67.686-30.304 67.686-67.686s-30.304-67.686-67.686-67.686c-1.309 0-2.61 0.037-3.901 0.111l0.179-0.008zM1361.92 806.4h-958.464c-1.116-0.065-2.422-0.102-3.736-0.102-37.665 0-68.198 30.533-68.198 68.198s30.533 68.198 68.198 68.198c1.314 0 2.62-0.037 3.915-0.111l-0.18 0.008h958.464c1.116 0.065 2.422 0.102 3.736 0.102 37.665 0 68.198-30.533 68.198-68.198s-30.533-68.198-68.198-68.198c-1.314 0-2.62 0.037-3.915 0.111l0.18-0.008zM96.256 960c48.184-2.735 86.221-42.476 86.221-91.1 0-50.39-40.849-91.238-91.238-91.238-50.377 0-91.218 40.828-91.238 91.201v0.002c1.35 50.639 42.723 91.175 93.562 91.175 0.947 0 1.891-0.014 2.832-0.042l-0.138 0.003zM96.256 539.136c48.184-2.735 86.221-42.476 86.221-91.1 0-50.39-40.849-91.238-91.238-91.238-50.377 0-91.218 40.828-91.238 91.201v0.002c1.35 50.639 42.723 91.175 93.562 91.175 0.947 0 1.891-0.014 2.832-0.042l-0.138 0.003zM96.256 118.272c48.184-2.735 86.221-42.476 86.221-91.1 0-50.39-40.849-91.238-91.238-91.238-50.377 0-91.218 40.828-91.238 91.201v0.002c1.35 50.639 42.723 91.175 93.562 91.175 0.947 0 1.891-0.014 2.832-0.042l-0.138 0.003z" />
<glyph unicode="&#xe916;" glyph-name="logo" horiz-adv-x="1152" d="M1066.88 433.92c52.677 57.251 84.97 133.974 84.97 218.24s-32.293 160.989-85.179 218.469l0.208-0.229c-51.4 55.562-124.691 90.232-206.080 90.232s-154.68-34.67-205.91-90.046l-0.17-0.186c-183.040-193.28 7.68-460.8-280.96-522.24-51.189-6.63-96.393-28.295-132.063-60.357l0.223 0.197c-35.11-38.21-56.63-89.392-56.63-145.6s21.521-107.39 56.772-145.756l-0.141 0.156c34.39-36.957 83.304-60.003 137.6-60.003s103.211 23.045 137.495 59.888l0.105 0.114c30.248 38.75 50.524 86.651 56.212 138.933l0.108 1.227c57.6 305.92 310.4 103.040 493.44 296.96zM388.48 684.16c-6.555-102.155-91.016-182.528-194.248-182.528-107.488 0-194.624 87.136-194.624 194.624s87.136 194.624 194.624 194.624c0.115 0 0.23 0 0.345 0h-0.018c107.898-3.534 194.023-91.851 194.023-200.283 0-2.264-0.038-4.519-0.112-6.764l0.009 0.327z" />
<glyph unicode="&#xe917;" glyph-name="logout" d="M661.299 192h-42.701c-11.782-0.087-21.299-9.658-21.299-21.452 0-0.018 0-0.036 0-0.055v0.003-148.992h-512v852.992h512v-148.992c0-0.015 0-0.034 0-0.052 0-11.794 9.517-21.365 21.291-21.452h42.709c11.788 0.116 21.299 9.699 21.299 21.503 0 0 0 0.001 0 0.001v0 148.992c0 0 0 0 0 0 0 47.151-38.165 85.387-85.288 85.504h-512.011c-47.134-0.116-85.299-38.353-85.299-85.504 0 0 0 0 0 0v0-852.992c0 0 0 0 0 0 0-47.151 38.165-85.387 85.288-85.504h512.011c47.134 0.116 85.299 38.353 85.299 85.504 0 0 0 0 0 0v0 148.992c0 0 0 0.001 0 0.001 0 11.804-9.511 21.387-21.288 21.503h-0.011zM1016.986 463.872l-256 234.496c-3.918 3.505-9.12 5.648-14.821 5.648-2.94 0-5.747-0.57-8.317-1.605l0.15 0.053c-7.585-3.525-12.749-11.079-12.749-19.84 0-0.045 0-0.090 0-0.135v0.007-42.496c0-0.015 0-0.032 0-0.050 0-6.275 2.72-11.915 7.046-15.805l0.019-0.017 148.48-133.632h-603.546c-0.091 0.001-0.199 0.002-0.307 0.002-11.605 0-21.015-9.393-21.043-20.992v-43.011c0.028-11.601 9.439-20.994 21.043-20.994 0.108 0 0.216 0.001 0.324 0.002h603.376l-148.48-133.632c-4.345-3.907-7.066-9.547-7.066-15.822 0-0.018 0-0.035 0-0.053v0.003-42.496c-0.004-0.146-0.006-0.317-0.006-0.489 0-8.526 5.21-15.835 12.619-18.917l0.136-0.050c2.358-1.293 5.166-2.054 8.152-2.054 0.158 0 0.316 0.002 0.473 0.006h-0.023c5.552 0.053 10.597 2.183 14.405 5.648l-0.018-0.016 256 234.496c4.309 3.971 6.999 9.643 6.999 15.943 0 6.226-2.628 11.839-6.834 15.79l-0.011 0.011z" />
<glyph unicode="&#xe918;" glyph-name="dotes" horiz-adv-x="256" d="M128 704c0.022 0 0.047 0 0.073 0 70.692 0 128 57.308 128 128s-57.308 128-128 128c-70.692 0-128-57.308-128-128v0c0.248-70.567 57.366-127.71 127.899-128h0.028zM128 576c-0.022 0-0.047 0-0.073 0-70.692 0-128-57.308-128-128s57.308-128 128-128c70.692 0 128 57.308 128 128v0c-0.248 70.567-57.366 127.71-127.899 128h-0.028zM128 192c-0.022 0-0.047 0-0.073 0-70.692 0-128-57.308-128-128s57.308-128 128-128c70.692 0 128 57.308 128 128v0c0 70.667-57.266 127.958-127.923 128h-0.004z" />
<glyph unicode="&#xe919;" glyph-name="calendar2" d="M1000.594 791.771c-14.1 13.582-33.306 21.949-54.467 21.949-0.343 0-0.685-0.002-1.027-0.007l0.052 0.001h-78.775v54.857c0.001 0.148 0.001 0.323 0.001 0.498 0 25.702-11.282 48.768-29.164 64.518l-0.095 0.082c-17.719 16.335-41.481 26.351-67.582 26.351-0.695 0-1.388-0.007-2.080-0.021l0.103 0.002h-39.058c-0.605 0.013-1.318 0.021-2.032 0.021-26.084 0-49.827-10.017-67.595-26.414l0.068 0.062c-17.977-15.831-29.259-38.898-29.259-64.599 0-0.175 0.001-0.35 0.002-0.525v0.027-54.857h-236.325v54.857c0.001 0.187 0.002 0.408 0.002 0.63 0 25.661-11.285 48.687-29.163 64.384l-0.097 0.083c-17.668 16.334-41.385 26.352-67.441 26.352-0.719 0-1.436-0.008-2.151-0.023l0.107 0.002h-38.619c-0.588 0.012-1.281 0.020-1.976 0.020-26.101 0-49.863-10.016-67.652-26.414l0.069 0.063c-17.978-15.856-29.258-38.943-29.258-64.665 0-0.152 0-0.304 0.001-0.455v0.023-54.857h-78.848c-0.303 0.004-0.661 0.007-1.020 0.007-21.123 0-40.292-8.369-54.372-21.971l0.022 0.022c-14.363-12.31-23.407-30.47-23.407-50.744 0-0.16 0.001-0.321 0.002-0.481v0.025-731.429c0.025-20.408 9.052-38.703 23.324-51.13l0.082-0.070c14.057-13.581 33.226-21.949 54.35-21.949 0.358 0 0.716 0.002 1.074 0.007l-0.054-0.001h866.67c0.316-0.005 0.69-0.007 1.064-0.007 21.086 0 40.218 8.37 54.252 21.97l-0.020-0.020c14.486 12.435 23.626 30.743 23.698 51.187v731.442c0.001 0.106 0.001 0.231 0.001 0.356 0 20.304-9.042 38.496-23.318 50.77l-0.088 0.074zM708.827 868.571c-0.010 0.216-0.016 0.469-0.016 0.723 0 4.924 2.116 9.355 5.488 12.431l0.013 0.012c3.394 3.194 7.978 5.156 13.020 5.156 0.412 0 0.82-0.013 1.225-0.039l-0.055 0.003h39.497c0.354 0.024 0.766 0.037 1.182 0.037 5.015 0 9.572-1.964 12.942-5.165l-0.008 0.008c3.428-3.247 5.561-7.831 5.561-12.913 0-0.089-0.001-0.178-0.002-0.266v0.013-164.571c0.001-0.075 0.002-0.164 0.002-0.253 0-5.082-2.133-9.666-5.553-12.905l-0.008-0.008c-3.783-3.185-8.71-5.12-14.088-5.12-0.010 0-0.020 0-0.030 0h-39.495c-5.409 0.021-10.363 1.951-14.227 5.15l0.037-0.030c-3.385 3.265-5.488 7.84-5.488 12.906 0 0.091 0.001 0.183 0.002 0.274v-0.014 164.571zM236.105 868.571c-0.007 0.187-0.012 0.407-0.012 0.627 0 4.967 2.144 9.434 5.556 12.525l0.014 0.013c3.362 3.193 7.919 5.157 12.934 5.157 0.416 0 0.829-0.014 1.238-0.040l-0.056 0.003h39.424c0.337 0.021 0.731 0.034 1.128 0.034 5.032 0 9.605-1.962 12.998-5.162l-0.009 0.009c3.428-3.247 5.561-7.831 5.561-12.913 0-0.089-0.001-0.178-0.002-0.266v0.013-164.571c0.001-0.075 0.002-0.164 0.002-0.253 0-5.082-2.133-9.666-5.553-12.905l-0.008-0.008c-3.806-3.159-8.733-5.088-14.11-5.12h-39.212c-0.008 0-0.018 0-0.028 0-5.379 0-10.305 1.935-14.122 5.147l0.033-0.027c-3.429 3.282-5.56 7.895-5.56 13.006 0 0.056 0 0.112 0.001 0.168v-0.009 164.571zM945.152 9.143h-866.67v585.143h866.67v-585.143z" />
<glyph unicode="&#xe91a;" glyph-name="dayoff" d="M939.886 854.674h-8.046v37.303c0 37.164-30.127 67.291-67.291 67.291s-67.291-30.127-67.291-67.291v0-37.303h-100.206v37.303c0 37.164-30.127 67.291-67.291 67.291s-67.291-30.127-67.291-67.291v0-37.303h-100.937v37.303c0 36.962-29.964 66.926-66.926 66.926s-66.926-29.964-66.926-66.926v-37.303h-100.937v37.303c0 37.164-30.127 67.291-67.291 67.291s-67.291-30.127-67.291-67.291v0-37.303h-8.046c-46.573-0.532-84.123-38.411-84.123-85.060 0-0.439 0.003-0.877 0.010-1.315l-0.001 0.066 0.731-678.034c-0.009-0.611-0.014-1.333-0.014-2.056 0-83.947 67.601-152.105 151.334-153.006l0.085-0.001h719.726c83.885 1.233 151.413 69.523 151.413 153.584 0 0.52-0.003 1.039-0.008 1.558l0.001-0.079 0.731 678.034c0.006 0.371 0.009 0.81 0.009 1.249 0 46.649-37.55 84.528-84.073 85.059h-0.050zM956.709 90.331c0.001-0.175 0.002-0.382 0.002-0.59 0-47.036-37.882-85.224-84.801-85.719h-719.773c-46.966 0.495-84.848 38.683-84.848 85.719 0 0.207 0.001 0.414 0.002 0.621v-0.032 582.217h889.417v-582.217zM183.589 362.423h142.629c19.056 0.329 34.377 15.854 34.377 34.957 0 0.053 0 0.106 0 0.159v-0.008 146.286c0 0.045 0 0.098 0 0.151 0 19.104-15.322 34.628-34.347 34.957h-142.66c-19.056-0.329-34.377-15.854-34.377-34.957 0-0.053 0-0.106 0-0.159v0.008-146.286c0-0.045 0-0.098 0-0.151 0-19.104 15.322-34.628 34.347-34.957h0.031zM183.589 97.646h142.629c0.022 0 0.047 0 0.073 0 18.946 0 34.304 15.358 34.304 34.304 0 0.026 0 0.051 0 0.077v-0.004 146.286c0.003 0.174 0.005 0.38 0.005 0.585 0 19.017-15.376 34.443-34.374 34.523h-142.637c-19.006-0.080-34.382-15.506-34.382-34.523 0-0.206 0.002-0.411 0.005-0.616v0.031-146.286c0-0.022 0-0.047 0-0.073 0-18.946 15.358-34.304 34.304-34.304 0.026 0 0.051 0 0.077 0h-0.004zM442.514 97.646h143.36c0.022 0 0.047 0 0.073 0 18.946 0 34.304 15.358 34.304 34.304 0 0.026 0 0.051 0 0.077v-0.004 146.286c0.003 0.174 0.005 0.38 0.005 0.585 0 19.017-15.376 34.443-34.374 34.523h-143.368c-18.672-0.405-33.654-15.638-33.654-34.37 0-0.26 0.003-0.519 0.009-0.778l-0.001 0.038v-146.286c0-0.066-0.001-0.145-0.001-0.223 0-18.685 15.003-33.866 33.619-34.154h0.027zM701.44 362.423h143.36c19.056 0.329 34.377 15.854 34.377 34.957 0 0.053 0 0.106 0 0.159v-0.008 146.286c0 0.045 0 0.098 0 0.151 0 19.104-15.322 34.628-34.347 34.957h-143.391c-19.056-0.329-34.377-15.854-34.377-34.957 0-0.053 0-0.106 0-0.159v0.008-146.286c0-0.045 0-0.098 0-0.151 0-19.104 15.322-34.628 34.347-34.957h0.031zM709.486 531.383c-0.002 0.044-0.003 0.097-0.003 0.149 0 2.343 1.899 4.242 4.242 4.242 0.052 0 0.105-0.001 0.156-0.003h118.483c0.044 0.002 0.097 0.003 0.149 0.003 2.343 0 4.242-1.899 4.242-4.242 0-0.052-0.001-0.105-0.003-0.156v0.008-121.417c0.025-0.166 0.039-0.357 0.039-0.551 0-2.141-1.736-3.877-3.877-3.877-0.195 0-0.386 0.014-0.573 0.042l0.021-0.003h-118.491c-0.166-0.025-0.357-0.039-0.551-0.039-2.141 0-3.877 1.736-3.877 3.877 0 0.195 0.014 0.386 0.042 0.573l-0.003-0.021v121.417zM701.44 97.646h143.36c0.022 0 0.047 0 0.073 0 18.946 0 34.304 15.358 34.304 34.304 0 0.026 0 0.051 0 0.077v-0.004 146.286c0.003 0.174 0.005 0.38 0.005 0.585 0 19.017-15.376 34.443-34.374 34.523h-143.368c-19.006-0.080-34.382-15.506-34.382-34.523 0-0.206 0.002-0.411 0.005-0.616v0.031-146.286c0-0.022 0-0.047 0-0.073 0-18.946 15.358-34.304 34.304-34.304 0.026 0 0.051 0 0.077 0h-0.004zM441.783 362.423h143.36c19.056 0.329 34.377 15.854 34.377 34.957 0 0.053 0 0.106 0 0.159v-0.008 146.286c0 0.045 0 0.098 0 0.151 0 19.104-15.322 34.628-34.347 34.957h-143.391c-19.056-0.329-34.377-15.854-34.377-34.957 0-0.053 0-0.106 0-0.159v0.008-146.286c0-0.045 0-0.098 0-0.151 0-19.104 15.322-34.628 34.347-34.957h0.031z" />
<glyph unicode="&#xe91b;" glyph-name="trash" horiz-adv-x="937" d="M931.913 783.726c-3.903 3.629-9.153 5.856-14.923 5.856-0.154 0-0.307-0.002-0.46-0.005h-206.094l-46.592 111.177c-7.603 17.786-20.049 32.28-35.683 42.2l-0.376 0.223c-14.786 10.126-32.953 16.345-52.543 16.821l-0.12 0.002h-213.358c-19.734-0.476-37.926-6.695-53.074-17.041l0.338 0.218c-15.95-10.187-28.36-24.668-35.755-41.819l-0.232-0.603-46.665-111.177h-206.043c-0.289 0.015-0.627 0.023-0.968 0.023-11.27 0-20.407-9.136-20.407-20.407 0-0.291 0.006-0.581 0.018-0.869l-0.001 0.041v-43.154c-0.011-0.247-0.017-0.536-0.017-0.828 0-11.27 9.136-20.407 20.407-20.407 0.34 0 0.679 0.008 1.015 0.025l-0.047-0.002h64v-634.88c-0.031-1.121-0.048-2.439-0.048-3.762 0-34.349 11.838-65.932 31.658-90.893l-0.231 0.301c17.199-23.323 44.433-38.386 75.204-38.765l0.060-0.001h554.862c31.211 0.321 58.681 16.045 75.209 39.921l0.201 0.307c19.555 25.267 31.346 57.405 31.346 92.296 0 1.238-0.015 2.473-0.044 3.704l0.003-0.183v631.954h64c0.336-0.020 0.729-0.031 1.125-0.031 11.149 0 20.187 9.038 20.187 20.187 0 0.371-0.010 0.74-0.030 1.106l0.002-0.051v43.154c0.002 0.107 0.003 0.233 0.003 0.36 0 5.807-2.256 11.087-5.938 15.012l0.011-0.012zM351.744 867.84c2.943 3.403 6.79 5.949 11.168 7.271l0.169 0.044h211.383c4.54-1.385 8.382-3.927 11.313-7.286l0.025-0.029 31.963-78.263h-298.715zM767.195 72.046c0.003-0.25 0.005-0.546 0.005-0.843 0-9.414-1.718-18.427-4.858-26.741l0.173 0.521c-2.554-6.98-5.813-13.022-9.803-18.499l0.148 0.213c-1.745-2.474-4.275-4.291-7.223-5.099l-0.091-0.021h-554.862c-3.025 0.864-5.545 2.672-7.287 5.081l-0.027 0.039c-3.841 5.264-7.101 11.306-9.488 17.77l-0.167 0.515c-2.967 7.794-4.686 16.806-4.686 26.22 0 0.296 0.002 0.592 0.005 0.888v-0.045 631.954h597.504v-631.954zM276.334 149.577h42.715c0.428-0.034 0.927-0.053 1.431-0.053 5.464 0 10.401 2.261 13.924 5.899l0.005 0.005c3.719 3.63 6.026 8.693 6.026 14.295 0 0.375-0.010 0.747-0.031 1.116l0.002-0.051v384c0.013 0.27 0.020 0.586 0.020 0.905 0 11.23-9.104 20.334-20.334 20.334-0.367 0-0.732-0.010-1.095-0.029l0.051 0.002h-42.715c-0.267 0.012-0.58 0.020-0.894 0.020-11.27 0-20.407-9.136-20.407-20.407 0-0.29 0.006-0.578 0.018-0.865l-0.001 0.041v-384c-0.024-0.36-0.037-0.781-0.037-1.205 0-5.573 2.343-10.599 6.099-14.147l0.009-0.009c3.448-3.643 8.318-5.911 13.717-5.911 0.527 0 1.049 0.022 1.565 0.064l-0.068-0.004zM447.122 149.577h42.715c0.434-0.035 0.939-0.055 1.449-0.055 5.436 0 10.344 2.264 13.831 5.9l0.006 0.007c3.679 3.613 5.959 8.639 5.959 14.198 0 0.409-0.012 0.815-0.037 1.217l0.003-0.055v384c0.017 0.314 0.027 0.682 0.027 1.051 0 11.149-9.038 20.187-20.187 20.187-0.37 0-0.737-0.010-1.102-0.030l0.051 0.002h-42.715c-0.312 0.017-0.677 0.027-1.044 0.027-11.23 0-20.334-9.104-20.334-20.334 0-0.318 0.007-0.635 0.022-0.949l-0.002 0.045v-384c-0.023-0.353-0.036-0.766-0.036-1.182 0-5.566 2.312-10.593 6.027-14.172l0.006-0.006c3.495-3.646 8.404-5.912 13.843-5.912 0.534 0 1.063 0.022 1.586 0.065l-0.069-0.005zM617.765 149.577h42.715c0.428-0.034 0.927-0.053 1.431-0.053 5.464 0 10.401 2.261 13.924 5.899l0.005 0.005c3.722 3.585 6.033 8.611 6.033 14.178 0 0.416-0.013 0.829-0.038 1.238l0.003-0.056v384c0.001 0.084 0.002 0.184 0.002 0.284 0 5.844-2.284 11.154-6.009 15.086l0.009-0.010c-3.903 3.629-9.153 5.856-14.923 5.856-0.154 0-0.307-0.002-0.46-0.005h-42.692c-0.29 0.015-0.629 0.023-0.971 0.023-11.23 0-20.334-9.104-20.334-20.334 0-0.317 0.007-0.632 0.022-0.945l-0.002 0.044v-384c-0.023-0.353-0.036-0.766-0.036-1.182 0-5.566 2.312-10.593 6.027-14.172l0.006-0.006c3.494-3.643 8.402-5.906 13.838-5.906 0.51 0 1.015 0.020 1.515 0.059l-0.066-0.004z" />
<glyph unicode="&#xe91c;" glyph-name="close" d="M659.029 431.787c-4.271 4.093-6.925 9.843-6.925 16.213s2.654 12.121 6.917 16.206l350.557 350.728c8.249 8.398 13.516 19.747 14.076 32.321l0.004 0.105c-0.529 12.957-5.794 24.59-14.099 33.3l0.019-0.020-65.365 64.853c-8.496 8.318-19.893 13.702-32.535 14.499l-0.148 0.007c-0.211 0.004-0.46 0.006-0.709 0.006-12.754 0-24.2-5.596-32.019-14.466l-0.040-0.047-350.464-349.867c-4.128-4.333-9.941-7.027-16.384-7.027s-12.256 2.694-16.375 7.018l-0.009 0.009-350.464 349.867c-8.131 8.919-19.799 14.494-32.768 14.494s-24.637-5.575-32.736-14.459l-0.032-0.035-65.451-64.853c-8.191-8.737-13.409-20.348-13.991-33.167l-0.004-0.113c0.607-12.656 5.83-23.987 14.008-32.44l-0.013 0.014 350.549-350.72c4.338-4.060 7.042-9.821 7.042-16.213s-2.703-12.153-7.029-16.202l-350.561-350.732c-8.165-8.44-13.388-19.77-13.99-32.313l-0.004-0.114c0.585-12.932 5.804-24.543 14.021-33.308l-0.026 0.028 65.451-64.853c8.131-8.919 19.799-14.494 32.768-14.494s24.637 5.575 32.736 14.459l0.032 0.035 350.464 350.72c4.128 4.333 9.941 7.027 16.384 7.027s12.256-2.694 16.375-7.018l350.473-350.729c8.117-8.915 19.77-14.489 32.725-14.489s24.609 5.573 32.693 14.453l0.032 0.036 65.365 64.853c8.286 8.689 13.551 20.323 14.077 33.179l0.003 0.101c-0.564 12.679-5.831 24.029-14.087 32.434l0.007-0.007z" />
<glyph unicode="&#xe91d;" glyph-name="check-round" d="M511.943-63.829c-282.226 0-511.829 229.604-511.829 511.829 0 282.283 229.604 511.886 511.829 511.886 282.283 0 511.886-229.604 511.886-511.886 0-282.226-229.604-511.829-511.886-511.829zM511.943 877.397c-236.772 0-429.397-192.626-429.397-429.34 0-236.772 192.626-429.34 429.397-429.34s429.397 192.569 429.397 429.284c0 236.772-192.626 429.397-429.397 429.397zM465.351 284.843c-7.415-7.539-17.726-12.21-29.127-12.21s-21.712 4.671-29.122 12.205l-0.005 0.006-116.622 116.565c-7.044 7.385-11.378 17.409-11.378 28.444 0 22.779 18.466 41.244 41.244 41.244 11.036 0 21.059-4.334 28.461-11.393l87.422-87.365 238.933 238.933c7.459 7.445 17.755 12.048 29.127 12.048 22.772 0 41.232-18.46 41.232-41.232 0-11.4-4.627-21.72-12.104-29.183l-268.061-268.061z" />
<glyph unicode="&#xe91e;" glyph-name="bell2" horiz-adv-x="878" d="M438.857-64.731c0.087 0 0.19 0 0.294 0 56.642 0 102.589 45.793 102.838 102.377v0.024h-206.263c0.249-56.608 46.196-102.4 102.838-102.4 0.103 0 0.206 0 0.31 0h-0.016zM774.583 243.2v281.6c0.001 0.333 0.002 0.728 0.002 1.123 0 156.823-109.359 288.103-255.977 321.74l-2.219 0.428v35.84c0 42.819-34.712 77.531-77.531 77.531s-77.531-34.712-77.531-77.531v0-35.84c-148.837-34.066-258.196-165.346-258.196-322.169 0-0.395 0.001-0.789 0.002-1.184v0.061-281.6l-103.131-103.131v-51.2h877.714v51.2zM671.451 191.269h-465.189v333.531c0 128.458 104.136 232.594 232.594 232.594s232.594-104.136 232.594-232.594v0-333.531z" />
<glyph unicode="&#xe91f;" glyph-name="angle-left" horiz-adv-x="515" d="M10.24 482.133l439.467 467.371c6.15 7.67 15.52 12.539 26.027 12.539s19.877-4.869 25.976-12.474l0.051-0.065c6.777-8.177 10.889-18.776 10.889-30.336s-4.112-22.159-10.953-30.415l0.064 0.079-413.013-439.211 413.013-439.211c6.771-8.164 10.879-18.749 10.879-30.293s-4.108-22.129-10.943-30.372l0.064 0.079c-6.15-7.67-15.52-12.539-26.027-12.539s-19.877 4.869-25.976 12.474l-0.051 0.065-439.467 467.371c-6.937 7.885-11.171 18.296-11.171 29.696 0 0.931 0.028 1.855 0.084 2.771l-0.006-0.126c-0.010 0.367-0.015 0.799-0.015 1.232 0 11.928 4.191 22.877 11.18 31.456l-0.072-0.091z" />
<glyph unicode="&#xe920;" glyph-name="angle-right" horiz-adv-x="513" d="M503.060 482.265l-440.605 467.298c-6.182 7.661-15.571 12.52-26.094 12.52s-19.912-4.859-26.044-12.457l-0.050-0.064c-6.782-8.172-10.897-18.77-10.897-30.329s4.115-22.156 10.961-30.408l-0.063 0.079 414.083-439.15-414.083-439.236c-6.782-8.172-10.897-18.77-10.897-30.329s4.115-22.156 10.961-30.408l-0.063 0.079c6.166-7.69 15.56-12.572 26.094-12.572s19.928 4.882 26.043 12.506l0.051 0.066 440.605 467.383c6.933 8.425 11.137 19.323 11.137 31.203 0 0.43-0.006 0.858-0.016 1.285l0.001-0.063c0.009 0.352 0.014 0.766 0.014 1.182 0 11.948-4.201 22.916-11.207 31.505l0.071-0.090z" />
<glyph unicode="&#xe921;" glyph-name="alert" horiz-adv-x="1191" d="M1173.211 98.377l-487.863 809.691c-18.902 31.329-52.757 51.956-91.429 51.956s-72.526-20.627-91.161-51.479l-0.267-0.477-487.863-809.691c-10-15.782-15.936-34.997-15.936-55.599 0-19.096 5.1-37.001 14.011-52.427l-0.27 0.506c18.822-32.894 53.658-54.731 93.605-54.857h975.744c39.965 0.127 74.801 21.964 93.345 54.33l0.278 0.527c8.469 14.948 13.459 32.831 13.459 51.879 0 20.579-5.825 39.798-15.917 56.098l0.263-0.457zM1107.383 28.891c-4.897-9.202-14.427-15.361-25.395-15.361-0.072 0-0.144 0-0.216 0.001h-975.715c-0.061 0-0.133-0.001-0.205-0.001-10.968 0-20.498 6.159-25.32 15.206l-0.075 0.155c-2.417 4.208-3.842 9.252-3.842 14.629s1.425 10.42 3.919 14.774l-0.077-0.145 487.863 809.691c5.482 8.595 14.841 14.295 25.552 14.627l0.048 0.001c10.591-0.176 19.794-5.953 24.794-14.49l0.075-0.138 488.594-809.691c2.417-4.208 3.842-9.252 3.842-14.629s-1.425-10.42-3.919-14.774l0.077 0.145zM593.92 641.097c-1.832 0.259-3.947 0.407-6.098 0.407-24.777 0-44.964-19.648-45.832-44.214l-0.002-0.079c0-85.577 9.509-208.457 9.509-294.034 1.788-18.118 16.947-32.155 35.385-32.155 2.491 0 4.922 0.256 7.268 0.744l-0.23-0.040c1.498-0.215 3.229-0.337 4.988-0.337 18.613 0 34.022 13.712 36.679 31.586l0.025 0.203c0 85.577 10.24 208.457 10.24 294.034-1.091 24.663-21.351 44.244-46.184 44.244-2.026 0-4.022-0.13-5.979-0.383l0.231 0.024zM594.651 221.989c-30.701 0-55.589-24.888-55.589-55.589s24.888-55.589 55.589-55.589v0c30.701 0 55.589 24.888 55.589 55.589s-24.888 55.589-55.588 55.589v0z" />
<glyph unicode="&#xe922;" glyph-name="warning" horiz-adv-x="1084" d="M997.256-59.784h-910.276c-48.068 0.004-87.033 38.972-87.033 87.040 0 16.036 4.337 31.059 11.901 43.96l-0.222-0.41 455.078 788.781c15.313 26.209 43.31 43.538 75.354 43.538s60.042-17.329 75.132-43.126l0.222-0.412 455.198-788.781c7.342-12.491 11.679-27.514 11.679-43.55 0-48.068-38.965-87.036-87.032-87.040v0zM1003.52 30.931l-455.138 788.781c-1.265 2.21-3.609 3.675-6.295 3.675s-5.030-1.465-6.276-3.64l-0.019-0.035-455.138-788.781c-0.631-1.051-1.004-2.32-1.004-3.675 0-3.992 3.236-7.228 7.228-7.228 0.035 0 0.071 0 0.106 0.001h910.271c0.012 0 0.026 0 0.040 0 3.992 0 7.228 3.236 7.228 7.228 0 1.355-0.373 2.623-1.022 3.707l0.018-0.033zM542.057 108.273c-22.030 0.034-39.876 17.901-39.876 39.936v0 23.793c-0.038 0.655-0.060 1.421-0.060 2.193 0 22.056 17.88 39.936 39.936 39.936s39.936-17.88 39.936-39.936c0-0.771-0.022-1.537-0.065-2.298l0.005 0.105v-23.793c0-0.018 0-0.039 0-0.060 0-22.023-17.853-39.876-39.876-39.876 0 0 0 0 0 0v0zM542.057 263.74c-22.009 0.034-39.842 17.867-39.876 39.873v228.716c1.195 21.092 18.591 37.743 39.876 37.743s38.68-16.651 39.871-37.638l0.005-0.105v-228.713c0-22.023-17.853-39.876-39.876-39.876v0z" />
<glyph unicode="&#xe923;" glyph-name="csv" horiz-adv-x="916" d="M834.829 586.617h-23.39v112.909l-0.162 2.102c0 0.010 0 0.022 0 0.033 0 4.734-1.734 9.063-4.602 12.387l-187.91 214.639c-1.121 1.199-2.376 2.249-3.749 3.133l-0.078 0.047-1.24 0.755c-1.077 0.601-2.327 1.133-3.637 1.528l-0.136 0.035-1.024 0.377c-1.318 0.285-2.841 0.461-4.401 0.485h-461.574c-21.061-0.031-38.127-17.096-38.157-38.155v-310.221h-23.39c-30.181 0-54.595-24.468-54.595-54.649v-283.917c0-30.127 24.414-54.595 54.595-54.595h23.39v-194.344c0-21.073 17.085-38.211 38.157-38.211h630.353c21.068 0.061 38.127 17.139 38.157 38.208v194.347h23.39c30.181 0 54.595 24.468 54.595 54.595v283.917c0 30.181-24.414 54.595-54.595 54.595zM142.929 896.889h442.476v-195.476c0-10.563 8.569-19.079 19.079-19.079h168.798v-95.717h-630.353v310.272zM430.511 378.637c-47.427 16.546-78.309 42.739-78.309 84.237 0 48.667 40.637 85.908 107.951 85.908 32.121 0 55.835-6.791 72.758-14.39l-14.39-52.062c-17.277 8.569-37.623 13.582-59.14 13.582-0.183 0-0.366 0-0.549-0.001h0.028c-27.917 0-41.445-12.719-41.445-27.54 0-18.216 16.061-26.247 52.871-40.205 50.392-18.594 74.051-44.84 74.051-85.046 0-47.805-36.81-88.441-115.119-88.441-32.552 0-64.728 8.461-80.788 17.354l13.096 53.302c17.354-8.893 44.032-17.785 71.518-17.785 29.642 0 45.272 12.288 45.272 30.936 0 17.785-13.528 27.917-47.805 40.152zM94.477 397.285c0 97.334 69.416 151.498 155.702 151.498 33.469 0 58.853-6.791 70.279-12.719l-13.15-51.2c-15.725 6.682-34.014 10.567-53.211 10.567-0.335 0-0.67-0.001-1.004-0.004h0.051c-51.2 0-90.974-30.828-90.974-94.316 0-57.128 33.846-93.13 91.405-93.13 19.456 0 41.068 4.258 53.733 9.324l9.755-50.338c-11.857-5.928-38.535-12.288-73.189-12.288-98.627 0-149.396 61.332-149.396 142.605zM773.282 9.512h-630.353v183.997h630.353v-183.997zM730.597 258.883h-75.345l-91.405 285.265h70.656l34.708-120.67c9.755-33.846 18.648-66.398 25.384-101.969h1.293c7.168 34.277 16.061 68.123 25.816 100.729l36.379 121.91h68.608l-96.094-285.265z" />
<glyph unicode="&#xe924;" glyph-name="pdf" horiz-adv-x="916" d="M834.829 193.509h-23.39v-194.344c-0.031-21.072-17.089-38.15-38.152-38.211h-630.359c-21.080 0.031-38.157 17.127-38.157 38.211v0 194.344h-23.39c-30.181 0-54.595 24.468-54.595 54.595v283.917c0 30.181 24.414 54.595 54.595 54.595h23.39v310.272c0 21.019 17.085 38.157 38.157 38.157h461.555c1.509 0 3.018-0.162 4.419-0.539l1.024-0.323c1.445-0.43 2.696-0.962 3.871-1.613l-0.098 0.050 1.24-0.755c1.401-0.916 2.695-1.94 3.827-3.18 0-0.108 0.054-0.108 0.162-0.162l187.769-214.555c2.846-3.271 4.581-7.574 4.581-12.282 0-0.021 0-0.042 0-0.063v0.003l0.162-2.102v-112.909h23.39c30.181 0 54.595-24.414 54.595-54.595v-283.917c0-30.127-24.414-54.595-54.595-54.595zM142.929 9.512h630.353v183.997h-630.353v-183.997zM611.867 388.554c0 50.338-18.594 85.477-48.236 107.466-27.486 20.749-62.626 30.504-116.79 30.504-32.606 0-63.488-2.156-87.202-5.928v-280.199c16.115-2.102 39.828-4.204 73.243-4.204 55.835 0 101.538 11.857 131.557 36.81 27.54 23.283 47.427 60.955 47.427 115.55zM113.772 520.596v-281.438h63.865v101.969c5.928-0.862 13.528-1.293 21.989-1.293 38.104 0 70.71 9.378 92.699 30.073 16.923 16.061 26.247 39.774 26.247 67.692 0 27.971-12.234 51.631-30.451 66.021-19.025 15.252-47.427 22.905-87.202 22.905-39.343 0-67.315-2.587-87.148-5.928zM773.282 682.28h-168.798c-10.543 0.031-19.079 8.585-19.079 19.133 0 0 0 0 0 0v0 195.476h-442.476v-310.272h630.353v95.663zM828.578 524.369h-174.296v-285.211h64.674v114.688h102.454v52.493h-102.454v65.159h109.622v52.871zM254.653 435.928c0-29.211-21.127-46.565-55.404-46.565-9.324 0-16.061 0.431-21.612 1.725v84.184c4.689 1.293 13.581 2.587 26.678 2.587 32.175 0 50.338-15.683 50.338-41.93zM446.841 286.531c-8.030 0-16.923 0-22.42 1.293v186.637c5.497 1.24 14.767 2.533 29.211 2.533 55.404 0 90.112-31.313 89.681-90.597 0-68.123-38.050-100.244-96.472-99.867z" />
<glyph unicode="&#xe925;" glyph-name="xls" horiz-adv-x="916" d="M834.722 586.563h-23.39v112.856l-0.162 2.102c0 0.005 0 0.011 0 0.017 0 4.73-1.712 9.061-4.55 12.406l0.023-0.028-187.931 214.609c-1.121 1.199-2.376 2.249-3.749 3.133l-0.078 0.047-1.24 0.755c-1.077 0.601-2.327 1.133-3.637 1.528l-0.136 0.035-1.024 0.323c-1.308 0.372-2.811 0.588-4.363 0.593h-461.449c-21.091-0.031-38.181-17.12-38.211-38.208v-310.113h-23.336c-30.181 0-54.595-24.468-54.595-54.595v-283.864c0-30.127 24.414-54.541 54.595-54.541h23.336v-194.291c0.031-21.091 17.12-38.181 38.208-38.211h630.14c21.068 0.061 38.127 17.139 38.157 38.208v194.24h23.39c30.127 0 54.595 24.468 54.595 54.595v283.864c0 30.127-24.468 54.541-54.595 54.541zM143.037 896.728h442.314v-195.368c0-10.563 8.569-19.133 19.133-19.133h168.691v-95.663h-630.137v310.164zM571.554 308.413v-55.35h-182.218v291.678h66.237v-236.328h115.981zM102.454 253.063l84.399 147.564-81.381 144.115h75.722l25.546-53.248c8.677-17.731 15.144-32.013 22.097-48.451h0.862c6.952 18.594 12.557 31.582 19.887 48.451l24.684 53.248h75.291l-82.243-142.39 86.555-149.288h-76.153l-26.408 52.763c-10.833 20.372-17.731 35.517-25.923 52.386h-0.862c-6.090-16.923-13.42-32.067-22.528-52.386l-24.253-52.763h-75.291zM773.174 9.62h-630.137v183.943h630.137v-183.943zM681.876 248.697c-33.307 0-66.237 8.677-82.675 17.785l13.42 54.488c21.278-11.005 46.373-17.662 72.975-18.16l0.161-0.002c30.289 0 46.296 12.557 46.296 31.582 0 18.163-13.851 28.564-48.883 41.122-48.451 16.869-80.034 43.709-80.034 86.124 0 49.799 41.499 87.848 110.323 87.848 32.93 0 57.128-6.952 74.429-14.713l-14.713-53.248c-17.617 8.739-38.363 13.853-60.304 13.853-0.248 0-0.495-0.001-0.743-0.002h0.038c-28.564 0-42.415-12.935-42.415-28.133 0-18.594 16.438-26.84 54.11-41.122 51.469-19.025 75.722-45.811 75.722-86.932 0-48.936-37.619-90.489-117.706-90.489z" />
<glyph unicode="&#xe926;" glyph-name="eye" d="M1012.576 487.421c-53.341 87.238-125.061 157.333-215.151 210.284-90.096 52.953-185.233 79.432-285.424 79.432s-195.333-26.469-285.428-79.432c-90.098-52.951-161.814-123.046-215.147-210.284-7.616-13.332-11.424-26.475-11.424-39.431s3.809-26.099 11.424-39.427c53.333-87.242 125.049-157.343 215.147-210.282 90.096-52.959 185.237-79.418 285.428-79.418 100.193 0 195.331 26.371 285.424 79.13 90.090 52.761 161.822 122.954 215.151 210.57 7.618 13.328 11.424 26.465 11.424 39.427 0 12.955-3.807 26.099-11.424 39.431zM389.42 643.709c34.093 34.093 74.949 51.145 122.574 51.145 7.616 0 14.096-2.674 19.432-8.004 5.328-5.332 8.006-11.811 8.006-19.428 0-7.624-2.678-14.098-7.994-19.422-5.328-5.338-11.813-8.004-19.43-8.004-32.76 0-60.768-11.624-84.003-34.857-23.243-23.247-34.857-51.243-34.857-84.003 0-7.628-2.674-14.098-8.004-19.434-5.338-5.34-11.811-8.004-19.428-8.004-7.624 0-14.098 2.67-19.434 8.004-5.338 5.336-8.004 11.815-8.004 19.434 0 47.615 17.052 88.479 51.143 122.574zM760.289 261.41c-76.384-46.274-159.144-69.425-248.289-69.425-89.143 0-171.904 23.137-248.283 69.425s-139.904 108.479-190.569 186.58c57.904 89.908 130.475 157.151 217.713 201.713-23.237-39.613-34.859-82.474-34.859-128.566 0-70.483 25.052-130.754 75.143-180.856s110.383-75.143 180.856-75.143c70.479 0 130.754 25.054 180.856 75.143s75.145 110.373 75.145 180.856c0 46.092-11.624 88.959-34.863 128.566 87.234-44.563 159.809-111.812 217.711-201.713-50.657-78.101-114.175-140.292-190.559-186.58z" />
<glyph unicode="&#xe927;" glyph-name="logo-t" d="M820.828 81.992c-425.462-202.097-440.709 150.589-440.709 150.589v304.865h-119.491v156.611h119.491v194.355h162.888v-200.008h237.261v-148.5h-226.939l7.619-271.555c0.492-18.811 8.479-36.874 22.374-49.541 75.479-68.844 178.371 11.674 178.371 11.674l59.136-148.49z" />
<glyph unicode="&#xe928;" glyph-name="calendar" d="M970.272 889.34h-118.834v50.857c0 9.358-7.512 16.994-16.929 16.994h-118.833c-9.356 0-16.994-7.637-16.994-16.994v-50.857h-373.363v50.857c0 9.358-7.638 16.994-16.994 16.994h-118.834c-9.356 0-16.994-7.637-16.994-16.994v-50.857h-118.768c-9.358 0-16.994-7.638-16.994-16.994v-916.543c0-9.358 7.637-16.994 16.994-16.994h916.543c9.356 0 16.994 7.575 16.994 16.994v916.543c0 9.356-7.638 16.994-16.994 16.994v0zM732.671 923.203h84.845v-101.773h-84.845v101.773zM206.485 923.203h84.845v-101.773h-84.845v101.773zM70.723 855.352h101.773v-50.857c0-9.358 7.638-16.994 16.994-16.994h118.834c9.356 0 16.994 7.637 16.994 16.994v50.857h373.363v-50.857c0-9.358 7.637-16.994 16.994-16.994h118.834c9.356 0 16.929 7.637 16.929 16.994v50.857h101.84v-152.756h-882.555v152.756zM70.723-27.203v695.81h882.555v-695.81h-882.555z" />
<glyph unicode="&#xe929;" glyph-name="time" d="M512 960c-282.321 0-512-229.679-512-512s229.679-512 512-512c282.321 0 512 229.679 512 512s-229.679 512-512 512v0zM512-29.824c-263.503 0-477.824 214.32-477.824 477.824s214.32 477.824 477.824 477.824c263.503 0 477.824-214.32 477.824-477.824s-214.32-477.824-477.824-477.824v0zM512 857.585c-9.407 0-17.087-7.568-17.087-17.087v-392.496h-255.999c-9.407 0-17.087-7.663-17.087-17.087 0-9.407 7.68-17.087 17.087-17.087h273.088c9.407 0 17.087 7.68 17.087 17.087v409.585c0 9.521-7.68 17.087-17.087 17.087v0z" />
<glyph unicode="&#xe92a;" glyph-name="bell" d="M917.334 64h-810.668c-7.68 0-14.806 4.138-18.602 10.838-3.754 6.656-3.67 14.89 0.298 21.462l73.302 122.112c33.792 56.362 51.67 120.874 51.67 186.624v106.964c0 164.65 134.016 298.666 298.666 298.666s298.666-134.016 298.666-298.666v-106.966c0-65.75 17.878-130.262 51.67-186.624l73.302-122.112c3.968-6.57 4.054-14.806 0.298-21.462-3.798-6.698-10.922-10.836-18.602-10.836zM144.342 106.666h735.318l-53.93 89.814c-37.762 62.976-57.73 135.082-57.73 208.554v106.966c0 141.184-114.816 256-256 256s-256-114.816-256-256v-106.966c0-73.472-19.968-145.578-57.77-208.554l-53.888-89.814zM576 768c-11.776 0-21.334 9.558-21.334 21.334v85.334c0 23.552-19.114 42.666-42.666 42.666s-42.666-19.114-42.666-42.666v-85.334c0-11.776-9.558-21.334-21.334-21.334s-21.334 9.558-21.334 21.334v85.334c0 47.060 38.272 85.332 85.334 85.332s85.334-38.272 85.334-85.334v-85.334c0-11.774-9.558-21.332-21.334-21.332zM512-64c-58.838 0-106.666 47.83-106.666 106.666 0 18.858 4.992 37.334 14.422 53.462 5.974 10.154 18.944 13.482 29.226 7.638 10.154-5.974 13.568-19.030 7.638-29.226-5.546-9.43-8.576-20.736-8.576-31.872 0-35.286 28.714-64 64-64s64 28.714 64 64c0 11.136-3.030 22.442-8.576 31.872-5.974 10.154-2.56 23.254 7.638 29.226 10.198 5.846 23.21 2.518 29.226-7.638 9.43-16.128 14.422-34.602 14.422-53.462-0.088-58.836-47.916-106.666-106.754-106.666z" />
<glyph unicode="&#xe92b;" glyph-name="save" d="M574.67 667.441h125.383v208.971h-125.383v-208.971zM616.465 834.617h41.795v-125.383h-41.795v125.383zM553.772 186.786c5.219 0 10.459 2.62 15.678 5.219 2.62 5.219 5.219 10.459 5.219 15.678s-2.62 10.459-5.219 15.678c-7.839 7.839-23.517 7.839-31.356 0-2.62-5.219-5.219-10.459-5.219-15.678s2.62-10.459 5.219-15.678c2.62-2.62 10.459-5.219 15.678-5.219zM833.295 960h-822.846v-1024h1003.103v843.743l-180.234 180.234zM240.318 918.205h501.551v-292.581h-501.551v292.581zM804.559-22.184h-606.036v397.065h606.036v-397.065zM971.736-22.184h-125.383v438.86h-689.625v-438.86h-104.485v940.41h146.28v-334.374h585.14v334.374h33.956l154.119-154.119v-786.293zM282.111 186.786h208.971c10.459 0 20.897 10.459 20.897 20.897s-10.459 20.897-20.897 20.897h-208.971c-10.459 0-20.897-10.459-20.897-20.897s10.459-20.897 20.897-20.897zM282.111 270.374h146.28c10.459 0 20.897 10.459 20.897 20.897s-10.459 20.897-20.897 20.897h-146.28c-10.459 0-20.897-10.459-20.897-20.897s10.459-20.897 20.897-20.897z" />
<glyph unicode="&#xe92c;" glyph-name="export" d="M889.643 509.205c0-26.877 0-489.586 0-489.586 0-20.881-17.918-38.799-38.799-38.799h-767.225c-20.881 0-38.799 17.918-38.799 38.799v779.147c0 20.881 17.918 38.799 38.799 38.799 0 0 453.767 0 477.646 0 26.877 0 26.877 44.777 0 44.777s-477.646 0-477.646 0c-47.758 0-83.593-38.799-83.593-83.593v-779.147c0-47.758 38.799-83.593 83.593-83.593h767.225c44.777 0 80.595 35.836 83.593 83.593 0 0 0 462.726 0 489.586s-44.777 26.877-44.777 0zM689.618 959.992c-23.879 0-26.877-44.777 0-44.777s259.721 0 259.721 0-555.261-555.261-570.181-570.181c-17.918-17.918 14.92-47.758 32.838-32.838 14.92 14.92 570.181 570.181 570.181 570.181s0-241.804 0-256.723c-2.998-20.881 41.797-20.881 41.797 0s0 334.356 0 334.356-310.459 0-334.356 0z" />
<glyph unicode="&#xe92d;" glyph-name="delete" d="M511.827 74.841c8.678 0 17.355 8.678 17.355 17.355v572.746c0 8.678-8.678 17.355-17.355 17.355s-17.355-8.678-17.355-17.355v-572.746c0-10.846 8.678-17.355 17.355-17.355v0zM338.266 74.841c8.678 0 17.355 8.678 17.355 17.355v572.746c0 8.678-8.678 17.355-17.355 17.355s-17.355-8.678-17.355-17.355v-572.746c0-10.846 8.678-17.355 17.355-17.355v0zM685.385 74.841c8.678 0 17.355 8.678 17.355 17.355v572.746c0 8.678-8.678 17.355-17.355 17.355s-17.355-8.678-17.355-17.355v-572.746c0-10.846 8.678-17.355 17.355-17.355v0zM911.016 855.862h-242.982c-2.169 21.696-8.678 58.578-30.373 82.442-15.187 15.187-32.542 21.696-54.237 21.696h-173.558c-21.696 0-39.051-6.509-54.237-21.696-23.864-23.864-30.373-60.746-32.542-82.442h-208.272c-8.678 0-17.355-8.678-17.355-17.355s8.678-17.355 17.355-17.355h34.71l32.542-798.373c0-30.373 19.527-86.779 84.61-86.779h490.308c65.083 0 84.61 56.406 84.61 86.779l32.542 798.373h34.71c8.678 0 17.355 8.678 17.355 17.355 2.169 8.678-6.509 17.355-15.187 17.355v0zM377.317 912.268c8.678 8.678 17.355 10.846 30.373 10.846h173.558c13.018 0 21.696-4.34 30.373-10.846 13.018-15.187 19.527-39.051 21.696-58.578h-277.696c2.169 19.527 8.678 45.56 21.696 58.578v0zM806.878 22.775c0-4.34-2.169-52.069-49.897-52.069h-490.308c-47.728 0-49.897 47.728-49.897 52.069l-34.71 798.373h657.357l-32.542-798.373z" />
<glyph unicode="&#xe92e;" glyph-name="print" d="M853.34 584.528c-46.936 0-85.33-38.394-85.33-85.33s38.394-85.33 85.33-85.33 85.33 38.394 85.33 85.33-38.394 85.33-85.33 85.33zM853.34 448c-27.73 0-51.198 23.468-51.198 51.198s23.468 51.198 51.198 51.198 51.198-23.468 51.198-51.198-23.468-51.198-51.198-51.198zM307.208 191.991h409.603c8.542 0 17.066 8.542 17.066 17.066 0 10.664-8.542 17.066-17.066 17.066h-409.603c-8.542 0-17.066-8.542-17.066-17.066s8.542-17.066 17.066-17.066zM307.208 106.661h409.603c8.542 0 17.066 8.542 17.066 17.066 0 10.664-8.542 17.066-17.066 17.066h-409.603c-8.542 0-17.066-8.542-17.066-17.066s8.542-17.066 17.066-17.066zM870.406 669.859v290.141h-716.81v-290.141h-153.595v-580.264h102.396v-51.198h51.198v-102.396h716.81v102.396h51.198v51.198h102.396v580.264h-153.595zM187.728 925.867h648.528v-256.009h-648.528v256.009zM153.596 72.529h-17.066v119.462c0 8.542-8.542 17.066-17.066 17.066s-17.066-8.542-17.066-17.066v-68.264h-68.264v204.793h119.462v-256.009zM836.274-29.885h-648.528v358.405h648.528v-358.405zM34.134 362.652v273.075h955.735v-273.075h-955.735zM989.869 123.727h-68.264v68.264c0 8.542-8.542 17.066-17.066 17.066s-17.066-8.542-17.066-17.066v-119.462h-17.066v256.009h119.462v-204.793z" />
<glyph unicode="&#xe92f;" glyph-name="edit" d="M1016.325 757.882l-194.693 194.43c-10.233 10.233-26.764 10.233-36.997 0l-676.702-675.39c-3.673-3.149-6.297-7.085-7.872-11.545l-98.658-294.663c-4.723-13.644 2.886-28.6 16.531-33.323 5.51-1.837 11.283-1.837 16.531 0l294.925 98.658c4.461 1.574 8.396 4.198 11.545 7.872l675.39 676.964c10.233 10.233 10.233 26.764 0 36.997zM67.788 3.775l68.484 204.664 136.18-136.18-204.664-68.484zM320.994 98.235l-158.745 158.745 475.712 474.924 157.958-157.958-474.924-475.712zM832.915 610.944l-157.696 157.958 128.046 127.784 157.434-157.434-127.784-128.308z" />
<glyph unicode="&#xe930;" glyph-name="googleplay" d="M52.053 960c-1.28-3.968-2.56-7.893-2.56-13.141v-991.104c0-9.259 2.603-14.507 7.851-19.755l487.040 515.968-492.331 508.032zM577.237 417.792l125.909-129.92-179.755-102.4s-228.48-129.877-354.475-202.197l408.32 434.517zM611.413 453.248l135.083-140.459c21.163 11.776 186.496 106.325 210.091 119.467 24.917 14.421 22.4 34.133 1.237 44.629-19.584 10.88-184.917 105.6-209.92 120.96l-136.491-144.597zM577.152 487.381l127.317 135.211-181.717 103.723s-296.235 169.472-394.795 226.048l449.195-464.981z" />
<glyph unicode="&#xe931;" glyph-name="info-with-circle" d="M512 952.32c-271.514 0-491.571-220.058-491.571-491.52 0-271.514 220.058-491.571 491.571-491.571 271.411 0 491.52 220.058 491.52 491.571 0 271.462-220.109 491.52-491.52 491.52zM557.875 774.861c47.923 0 62.003-27.802 62.003-59.597 0-39.68-31.744-76.39-85.965-76.39-45.363 0-66.97 22.784-65.638 60.518 0 31.795 26.573 75.469 89.6 75.469zM435.098 166.4c-32.768 0-56.678 19.917-33.792 107.213l37.53 154.88c6.502 24.781 7.578 34.714 0 34.714-9.779 0-52.326-17.101-77.414-33.997l-16.333 26.778c79.616 66.509 171.162 105.523 210.33 105.523 32.768 0 38.195-38.707 21.862-98.304l-43.008-162.816c-7.629-28.774-4.352-38.707 3.277-38.707 9.83 0 41.984 11.878 73.626 36.813l18.534-24.883c-77.466-77.414-161.894-107.213-194.611-107.213z" />
<glyph unicode="&#xe932;" glyph-name="info" d="M554 554.667v86h-84v-86h84zM554 212.667v256h-84v-256h84zM512 852.667q176 0 301-125t125-301-125-301-301-125-301 125-125 301 125 301 301 125z" />
<glyph unicode="&#xe933;" glyph-name="info1" d="M512 864c-229.76 0-416-186.24-416-416s186.24-416 416-416 416 186.24 416 416-186.24 416-416 416zM577.248 294.944c-31.392-47.136-63.328-83.456-117.056-83.456-36.672 5.984-51.744 32.256-43.808 59.040l69.12 228.928c1.696 5.6-1.12 11.584-6.24 13.408-5.088 1.792-15.072-4.832-23.712-14.304l-41.792-50.272c-1.12 8.448-0.128 22.4-0.128 28.032 31.392 47.136 82.976 84.32 117.952 84.32 33.248-3.392 48.992-29.984 43.2-59.2l-69.6-230.048c-0.928-5.184 1.824-10.464 6.528-12.128 5.12-1.792 15.872 4.832 24.544 14.304l41.76 50.24c1.12-8.448-0.768-23.232-0.768-28.864zM567.936 593.952c-26.432 0-47.872 19.264-47.872 47.616s21.44 47.584 47.872 47.584 47.872-19.264 47.872-47.584c0-28.384-21.44-47.616-47.872-47.616z" />
<glyph unicode="&#xe9bd;" glyph-name="menu" d="M64 768h896v-192h-896zM64 512h896v-192h-896zM64 256h896v-192h-896z" />
<glyph unicode="&#xea39;" glyph-name="arrow-up-left2" d="M877.254 173.254l-530.744 530.746h229.49c35.346 0 64 28.654 64 64s-28.654 64-64 64h-384c-25.886 0-49.222-15.592-59.128-39.508-3.282-7.924-4.84-16.242-4.838-24.492h-0.034v-384c0-35.346 28.654-64 64-64s64 28.654 64 64v229.49l530.746-530.744c12.496-12.498 28.876-18.746 45.254-18.746s32.758 6.248 45.254 18.746c24.994 24.992 24.994 65.516 0 90.508z" />
<glyph unicode="&#xea3a;" glyph-name="arrow-up2" d="M877.254 557.254l-320 320c-24.992 24.994-65.514 24.994-90.508 0l-320-320c-24.994-24.994-24.994-65.516 0-90.51 24.994-24.996 65.516-24.996 90.51 0l210.744 210.746v-613.49c0-35.346 28.654-64 64-64s64 28.654 64 64v613.49l210.746-210.746c12.496-12.496 28.876-18.744 45.254-18.744s32.758 6.248 45.254 18.746c24.994 24.994 24.994 65.514 0 90.508z" />
<glyph unicode="&#xea3b;" glyph-name="arrow-up-right2" d="M237.254 82.746l530.746 530.744v-229.49c0-35.346 28.654-64 64-64s64 28.654 64 64v384c0 25.884-15.594 49.222-39.508 59.126-7.924 3.284-16.242 4.84-24.492 4.838v0.036h-384c-35.346 0-64-28.654-64-64 0-35.348 28.654-64 64-64h229.49l-530.744-530.746c-12.498-12.496-18.746-28.876-18.746-45.254s6.248-32.758 18.746-45.254c24.992-24.994 65.516-24.994 90.508 0z" />
<glyph unicode="&#xea3c;" glyph-name="arrow-right2" d="M621.254 82.746l320 320c24.994 24.992 24.994 65.516 0 90.51l-320 320c-24.994 24.992-65.516 24.992-90.51 0-24.994-24.994-24.994-65.516 0-90.51l210.746-210.746h-613.49c-35.346 0-64-28.654-64-64s28.654-64 64-64h613.49l-210.746-210.746c-12.496-12.496-18.744-28.876-18.744-45.254s6.248-32.758 18.744-45.254c24.994-24.994 65.516-24.994 90.51 0z" />
<glyph unicode="&#xea3d;" glyph-name="arrow-down-right2" d="M146.746 722.746l530.742-530.746h-229.488c-35.346 0-64-28.654-64-64s28.654-64 64-64h384c25.884 0 49.222 15.594 59.126 39.508 3.284 7.924 4.84 16.242 4.838 24.492h0.036v384c0 35.346-28.654 64-64 64-35.348 0-64-28.654-64-64v-229.49l-530.746 530.744c-12.496 12.498-28.874 18.746-45.254 18.746s-32.758-6.248-45.254-18.746c-24.994-24.992-24.994-65.516 0-90.508z" />
<glyph unicode="&#xea3e;" glyph-name="arrow-down2" d="M877.254 338.746l-320-320c-24.992-24.994-65.514-24.994-90.508 0l-320 320c-24.994 24.994-24.994 65.516 0 90.51 24.994 24.996 65.516 24.996 90.51 0l210.744-210.746v613.49c0 35.346 28.654 64 64 64s64-28.654 64-64v-613.49l210.746 210.746c12.496 12.496 28.876 18.744 45.254 18.744s32.758-6.248 45.254-18.746c24.994-24.994 24.994-65.514 0-90.508z" />
<glyph unicode="&#xea3f;" glyph-name="arrow-down-left2" d="M786.744 813.256l-530.744-530.744v229.49c0 35.346-28.654 64-64 64s-64-28.654-64-64v-384.002c0-25.886 15.592-49.222 39.508-59.128 7.924-3.282 16.242-4.84 24.492-4.836v-0.036l384 0.002c35.344 0 64 28.654 64 63.998 0 35.348-28.656 64-64 64h-229.49l530.744 530.746c12.496 12.496 18.746 28.876 18.746 45.256 0 16.376-6.25 32.758-18.746 45.254-24.992 24.992-65.518 24.992-90.51 0v0z" />
<glyph unicode="&#xea40;" glyph-name="arrow-left2" d="M402.746 82.746l-320 320c-24.994 24.992-24.994 65.516 0 90.51l320 320c24.994 24.992 65.516 24.992 90.51 0 24.994-24.994 24.994-65.516 0-90.51l-210.746-210.746h613.49c35.346 0 64-28.654 64-64s-28.654-64-64-64h-613.49l210.746-210.746c12.496-12.496 18.744-28.876 18.744-45.254s-6.248-32.758-18.744-45.254c-24.994-24.994-65.516-24.994-90.51 0z" />
<glyph unicode="&#xea91;" glyph-name="facebook2" d="M928 960h-832c-52.8 0-96-43.2-96-96v-832c0-52.8 43.2-96 96-96h416v448h-128v128h128v64c0 105.8 86.2 192 192 192h128v-128h-128c-35.2 0-64-28.8-64-64v-64h192l-32-128h-160v-448h288c52.8 0 96 43.2 96 96v832c0 52.8-43.2 96-96 96z" />
<glyph unicode="&#xea92;" glyph-name="instagram" d="M512 867.8c136.8 0 153-0.6 206.8-3 50-2.2 77-10.6 95-17.6 23.8-9.2 41-20.4 58.8-38.2 18-18 29-35 38.4-58.8 7-18 15.4-45.2 17.6-95 2.4-54 3-70.2 3-206.8s-0.6-153-3-206.8c-2.2-50-10.6-77-17.6-95-9.2-23.8-20.4-41-38.2-58.8-18-18-35-29-58.8-38.4-18-7-45.2-15.4-95-17.6-54-2.4-70.2-3-206.8-3s-153 0.6-206.8 3c-50 2.2-77 10.6-95 17.6-23.8 9.2-41 20.4-58.8 38.2-18 18-29 35-38.4 58.8-7 18-15.4 45.2-17.6 95-2.4 54-3 70.2-3 206.8s0.6 153 3 206.8c2.2 50 10.6 77 17.6 95 9.2 23.8 20.4 41 38.2 58.8 18 18 35 29 58.8 38.4 18 7 45.2 15.4 95 17.6 53.8 2.4 70 3 206.8 3zM512 960c-139 0-156.4-0.6-211-3-54.4-2.4-91.8-11.2-124.2-23.8-33.8-13.2-62.4-30.6-90.8-59.2-28.6-28.4-46-57-59.2-90.6-12.6-32.6-21.4-69.8-23.8-124.2-2.4-54.8-3-72.2-3-211.2s0.6-156.4 3-211c2.4-54.4 11.2-91.8 23.8-124.2 13.2-33.8 30.6-62.4 59.2-90.8 28.4-28.4 57-46 90.6-59 32.6-12.6 69.8-21.4 124.2-23.8 54.6-2.4 72-3 211-3s156.4 0.6 211 3c54.4 2.4 91.8 11.2 124.2 23.8 33.6 13 62.2 30.6 90.6 59s46 57 59 90.6c12.6 32.6 21.4 69.8 23.8 124.2 2.4 54.6 3 72 3 211s-0.6 156.4-3 211c-2.4 54.4-11.2 91.8-23.8 124.2-12.6 34-30 62.6-58.6 91-28.4 28.4-57 46-90.6 59-32.6 12.6-69.8 21.4-124.2 23.8-54.8 2.6-72.2 3.2-211.2 3.2v0zM512 711c-145.2 0-263-117.8-263-263s117.8-263 263-263 263 117.8 263 263c0 145.2-117.8 263-263 263zM512 277.4c-94.2 0-170.6 76.4-170.6 170.6s76.4 170.6 170.6 170.6c94.2 0 170.6-76.4 170.6-170.6s-76.4-170.6-170.6-170.6zM846.8 721.4c0-33.91-27.49-61.4-61.4-61.4s-61.4 27.49-61.4 61.4c0 33.91 27.49 61.4 61.4 61.4s61.4-27.49 61.4-61.4z" />
<glyph unicode="&#xeabe;" glyph-name="appleinc" d="M791.498 415.908c-1.294 129.682 105.758 191.876 110.542 194.966-60.152 88.020-153.85 100.078-187.242 101.472-79.742 8.074-155.596-46.948-196.066-46.948-40.368 0-102.818 45.754-168.952 44.552-86.916-1.292-167.058-50.538-211.812-128.38-90.304-156.698-23.126-388.84 64.89-515.926 43.008-62.204 94.292-132.076 161.626-129.58 64.842 2.588 89.362 41.958 167.756 41.958s100.428-41.958 169.050-40.67c69.774 1.296 113.982 63.398 156.692 125.796 49.39 72.168 69.726 142.038 70.924 145.626-1.548 0.706-136.060 52.236-137.408 207.134zM662.562 796.478c35.738 43.358 59.86 103.512 53.28 163.522-51.478-2.096-113.878-34.29-150.81-77.55-33.142-38.376-62.148-99.626-54.374-158.436 57.466-4.484 116.128 29.204 151.904 72.464z" />
</font>
</defs>
</svg>
