 <svg id="linkedin" viewBox="0 0 36 36" fill="none" xmlns="http://www.w3.org/2000/svg">
      <circle cx="18" cy="18" r="18" fill="#0077B5"/>
      <path fill-rule="evenodd" clip-rule="evenodd"
            d="M13.2973 9.25472C13.2973 10.3753 12.444 11.2822 11.1097 11.2822C9.82742 11.2822 8.97419 10.3753 9.0006 9.25472C8.97419 8.07967 9.8274 7.19922 11.1353 7.19922C12.444 7.19922 13.2717 8.07967 13.2973 9.25472ZM9.10787 25.9364V12.8838H13.1644V25.9355H9.10787V25.9364Z"
            fill="white"/>
      <path fill-rule="evenodd" clip-rule="evenodd"
            d="M16.4158 17.0495C16.4158 15.4215 16.3622 14.0335 16.3085 12.8857H19.832L20.0193 14.6739H20.0994C20.6333 13.8462 21.9676 12.5928 24.1295 12.5928C26.7981 12.5928 28.8 14.3545 28.8 18.1965V25.9383H24.7434V18.7048C24.7434 17.0223 24.1567 15.8753 22.6888 15.8753C21.5674 15.8753 20.9006 16.6493 20.6341 17.3961C20.5268 17.6634 20.474 18.0364 20.474 18.411V25.9383H16.4174V17.0495H16.4158Z"
            fill="white"/>
    </svg>