<?xml version="1.0" encoding="UTF-8" standalone="no"?>
<svg
   width="6457"
   height="1331"
   viewBox="0 0 6457 1331"
   fill="none"
   version="1.1"
   id="svg9"
   sodipodi:docname="Group 5130.svg"
   inkscape:version="1.4.2 (ebf0e940, 2025-05-08)"
   xmlns:inkscape="http://www.inkscape.org/namespaces/inkscape"
   xmlns:sodipodi="http://sodipodi.sourceforge.net/DTD/sodipodi-0.dtd"
   xmlns="http://www.w3.org/2000/svg"
   xmlns:svg="http://www.w3.org/2000/svg">
  <sodipodi:namedview
     id="namedview9"
     pagecolor="#505050"
     bordercolor="#eeeeee"
     borderopacity="1"
     inkscape:showpageshadow="0"
     inkscape:pageopacity="0"
     inkscape:pagecheckerboard="0"
     inkscape:deskcolor="#505050"
     inkscape:zoom="0.7053582"
     inkscape:cx="359.39187"
     inkscape:cy="611.74592"
     inkscape:window-width="1920"
     inkscape:window-height="1172"
     inkscape:window-x="0"
     inkscape:window-y="28"
     inkscape:window-maximized="0"
     inkscape:current-layer="svg9">
    <inkscape:page
       x="0"
       y="0"
       width="6457"
       height="1331"
       id="page2"
       margin="0"
       bleed="0" />
  </sodipodi:namedview>
  <path
     d="M 2154.3,353.214 V 976 H 2002.59 V 602.506 L 1863.31,976 H 1740.88 L 1600.71,601.618 V 976 H 1449 V 353.214 h 179.21 l 174.77,431.159 173,-431.159 z m 333.36,629.883 c -48.5,0 -92.26,-10.35 -131.3,-31.05 -38.44,-20.701 -68.9,-50.273 -91.37,-88.716 -21.89,-38.444 -32.83,-83.393 -32.83,-134.849 0,-50.863 11.24,-95.517 33.71,-133.961 22.48,-39.035 53.23,-68.903 92.27,-89.603 39.03,-20.7 82.8,-31.051 131.3,-31.051 48.49,0 92.26,10.351 131.3,31.051 39.03,20.7 69.79,50.568 92.26,89.603 22.48,38.444 33.71,83.098 33.71,133.961 0,50.864 -11.53,95.814 -34.6,134.849 -22.47,38.443 -53.52,68.015 -93.15,88.716 -39.03,20.7 -82.8,31.05 -131.3,31.05 z m 0,-131.299 c 28.98,0 53.53,-10.646 73.64,-31.938 20.7,-21.292 31.05,-51.751 31.05,-91.378 0,-39.626 -10.06,-70.085 -30.17,-91.377 -19.51,-21.292 -43.76,-31.938 -72.74,-31.938 -29.58,0 -54.12,10.646 -73.64,31.938 -19.52,20.7 -29.27,51.159 -29.27,91.377 0,39.627 9.46,70.086 28.39,91.378 19.51,21.292 43.76,31.938 72.74,31.938 z m 563.81,131.299 c -48.5,0 -92.27,-10.35 -131.3,-31.05 -38.44,-20.701 -68.9,-50.273 -91.38,-88.716 -21.88,-38.444 -32.82,-83.393 -32.82,-134.849 0,-50.863 11.23,-95.517 33.71,-133.961 22.47,-39.035 53.23,-68.903 92.26,-89.603 39.04,-20.7 82.8,-31.051 131.3,-31.051 48.5,0 92.27,10.351 131.3,31.051 39.04,20.7 69.79,50.568 92.27,89.603 22.47,38.444 33.71,83.098 33.71,133.961 0,50.864 -11.53,95.814 -34.6,134.849 -22.47,38.443 -53.53,68.015 -93.15,88.716 -39.04,20.7 -82.8,31.05 -131.3,31.05 z m 0,-131.299 c 28.98,0 53.52,-10.646 73.63,-31.938 20.7,-21.292 31.05,-51.751 31.05,-91.378 0,-39.626 -10.05,-70.085 -30.16,-91.377 -19.52,-21.292 -43.77,-31.938 -72.75,-31.938 -29.57,0 -54.11,10.646 -73.63,31.938 -19.52,20.7 -29.28,51.159 -29.28,91.377 0,39.627 9.47,70.086 28.39,91.378 19.52,21.292 43.77,31.938 72.75,31.938 z m 640.1,-376.156 c 57.96,0 104.09,18.926 138.4,56.778 34.89,37.261 52.34,88.716 52.34,154.366 V 976 H 3731.49 V 707.191 c 0,-33.121 -8.57,-58.849 -25.72,-77.183 -17.16,-18.335 -40.22,-27.502 -69.2,-27.502 -28.98,0 -52.05,9.167 -69.2,27.502 -17.15,18.334 -25.73,44.062 -25.73,77.183 V 976 h -151.7 V 480.965 h 151.7 v 65.65 c 15.38,-21.884 36.08,-39.035 62.1,-51.456 26.02,-13.011 55.3,-19.517 87.83,-19.517 z m 446.8,-156.14 V 976 H 3986.66 V 319.502 Z m 185.17,110.007 c -26.62,0 -48.5,-7.688 -65.65,-23.066 -16.56,-15.969 -24.84,-35.486 -24.84,-58.552 0,-23.658 8.28,-43.175 24.84,-58.553 17.15,-15.969 39.03,-23.953 65.65,-23.953 26.02,0 47.31,7.984 63.87,23.953 17.15,15.378 25.73,34.895 25.73,58.553 0,23.066 -8.58,42.583 -25.73,58.552 -16.56,15.378 -37.85,23.066 -63.87,23.066 z m 75.41,51.456 V 976 H 4247.24 V 480.965 Z m 296.95,-7.098 c 34.89,0 65.35,7.098 91.37,21.292 26.62,14.195 47.02,32.825 61.22,55.891 v -70.085 h 151.7 v 494.148 c 0,45.537 -9.16,86.647 -27.5,123.317 -17.74,37.26 -45.24,66.83 -82.5,88.71 -36.67,21.89 -82.51,32.83 -137.51,32.83 -73.34,0 -132.78,-17.45 -178.32,-52.34 -45.54,-34.31 -71.57,-81.03 -78.07,-140.17 h 149.93 c 4.73,18.92 15.97,33.71 33.71,44.35 17.74,11.24 39.62,16.86 65.65,16.86 31.34,0 56.19,-9.17 74.52,-27.5 18.93,-17.75 28.39,-46.43 28.39,-86.057 v -70.086 c -14.79,23.066 -35.19,41.992 -61.22,56.778 -26.02,14.195 -56.48,21.292 -91.37,21.292 -40.81,0 -77.78,-10.35 -110.9,-31.05 -33.12,-21.292 -59.44,-51.16 -78.95,-89.603 -18.93,-39.036 -28.39,-83.985 -28.39,-134.849 0,-50.864 9.46,-95.517 28.39,-133.961 19.51,-38.444 45.83,-68.016 78.95,-88.716 33.12,-20.7 70.09,-31.051 110.9,-31.051 z m 152.59,254.615 c 0,-37.852 -10.65,-67.72 -31.94,-89.603 -20.7,-21.883 -46.13,-32.825 -76.29,-32.825 -30.17,0 -55.9,10.942 -77.19,32.825 -20.7,21.292 -31.05,50.864 -31.05,88.716 0,37.852 10.35,68.016 31.05,90.491 21.29,21.883 47.02,32.824 77.19,32.824 30.16,0 55.59,-10.941 76.29,-32.824 21.29,-21.884 31.94,-51.751 31.94,-89.604 z m 564.69,-252.84 c 56.77,0 102.31,18.926 136.62,56.778 34.3,37.261 51.45,88.716 51.45,154.366 V 976 H 5450.44 V 707.191 c 0,-33.121 -8.58,-58.849 -25.73,-77.183 -17.15,-18.335 -40.22,-27.502 -69.2,-27.502 -28.98,0 -52.05,9.167 -69.2,27.502 -17.15,18.334 -25.73,44.062 -25.73,77.183 V 976 h -151.7 V 319.502 h 151.7 v 228 c 15.38,-21.884 36.38,-39.331 62.99,-52.343 26.62,-13.011 56.48,-19.517 89.61,-19.517 z m 568.33,371.72 V 976 h -77.18 c -55,0 -97.88,-13.307 -128.64,-39.922 -30.75,-27.206 -46.13,-71.269 -46.13,-132.187 v -196.95 h -60.33 V 480.965 h 60.33 V 360.311 h 151.71 v 120.654 h 99.36 v 125.976 h -99.36 v 198.724 c 0,14.786 3.54,25.432 10.64,31.938 7.1,6.506 18.93,9.759 35.49,9.759 z"
     fill="#eaeaea"
     id="path1" />
  <rect
     y="108"
     width="1184"
     height="1184"
     rx="238"
     fill="#181727"
     id="rect1"
     x="0" />
  <path
     d="m 312,700 c 0,154.64 127.31667,280 284.37036,280 V 420 C 439.31667,420 312,545.36 312,700 Z"
     fill="#f9e3a7"
     id="path2"
     style="stroke-width:1.00777" />
  <path
     d="M 872,700 C 872,545.36 745.07466,420 588.50371,420 V 980 C 745.07466,980 872,854.64 872,700 Z"
     fill="#f9e3a7"
     id="path3"
     style="stroke-width:1.00622" />
  <path
     d="m 382.696,563.528 c 19.039,-19.039 50.38,-18.918 70.004,0.707 19.624,19.624 19.745,50.965 0.707,70.003 -19.038,19.039 -50.379,18.917 -70.004,-0.707 -19.624,-19.624 -19.745,-50.965 -0.707,-70.003 z"
     fill="#dac696"
     stroke="#f9e3a7"
     stroke-width="17"
     id="path4" />
  <path
     d="m 591.632,786.414 c 7.909,-7.909 21.046,-7.944 29.345,0.354 8.298,8.298 8.263,21.436 0.353,29.345 -7.909,7.909 -21.046,7.945 -29.345,-0.354 -8.298,-8.298 -8.263,-21.435 -0.353,-29.345 z"
     fill="#dac696"
     stroke="#f9e3a7"
     stroke-width="17"
     id="path5" />
  <path
     d="m 414.516,798.993 c 13.603,-13.603 35.922,-13.575 49.851,0.354 13.928,13.929 13.957,36.247 0.353,49.851 -13.604,13.604 -35.922,13.575 -49.851,-0.354 -13.928,-13.928 -13.957,-36.247 -0.353,-49.851 z"
     fill="#dac696"
     stroke="#f9e3a7"
     stroke-width="17"
     id="path6" />
  <path
     d="m 694.516,798.993 c 13.603,-13.603 35.922,-13.575 49.851,0.354 13.928,13.929 13.957,36.247 0.353,49.851 -13.604,13.604 -35.922,13.575 -49.851,-0.354 -13.928,-13.928 -13.957,-36.247 -0.353,-49.851 z"
     fill="#dac696"
     stroke="#f9e3a7"
     stroke-width="17"
     id="path7" />
  <circle
     cx="592"
     cy="700"
     r="291.5"
     stroke="url(#paint0_radial_3472_43)"
     stroke-width="121"
     id="circle7"
     style="stroke:url(#paint0_radial_3472_43)" />
  <path
     d="M 6192.4,376.6 V 404 h -37.2 V 517 H 6121 V 404 h -37.2 v -27.4 z m 176.16,0 V 517 h -34.2 v -84.2 l -31.4,84.2 h -27.6 l -31.6,-84.4 V 517 h -34.2 V 376.6 h 40.4 l 39.4,97.2 39,-97.2 z"
     fill="#eaeaea"
     id="path8" />
  <defs
     id="defs9">
    <radialGradient
       id="paint0_radial_3472_43"
       cx="0"
       cy="0"
       r="1"
       gradientUnits="userSpaceOnUse"
       gradientTransform="matrix(0,352,-352,0,592,700)">
      <stop
         stop-color="#F9E3A7"
         id="stop8" />
      <stop
         offset="1"
         stop-color="#F9E3A7"
         stop-opacity="0"
         id="stop9" />
    </radialGradient>
  </defs>
</svg>
