<svg width="852" height="190" viewBox="0 0 852 190" fill="none" xmlns="http://www.w3.org/2000/svg">
<path d="M140.832 17.448V141H110.736V66.904L83.104 141H58.816L31.008 66.728V141H0.912V17.448H36.464L71.136 102.984L105.456 17.448H140.832ZM201.613 142.408C191.992 142.408 183.309 140.355 175.565 136.248C167.939 132.141 161.896 126.275 157.437 118.648C153.096 111.021 150.925 102.104 150.925 91.896C150.925 81.8053 153.155 72.9467 157.613 65.32C162.072 57.576 168.173 51.6507 175.917 47.544C183.661 43.4373 192.344 41.384 201.965 41.384C211.587 41.384 220.269 43.4373 228.013 47.544C235.757 51.6507 241.859 57.576 246.317 65.32C250.776 72.9467 253.005 81.8053 253.005 91.896C253.005 101.987 250.717 110.904 246.141 118.648C241.683 126.275 235.523 132.141 227.661 136.248C219.917 140.355 211.235 142.408 201.613 142.408ZM201.613 116.36C207.363 116.36 212.232 114.248 216.221 110.024C220.328 105.8 222.381 99.7573 222.381 91.896C222.381 84.0347 220.387 77.992 216.397 73.768C212.525 69.544 207.715 67.432 201.965 67.432C196.099 67.432 191.229 69.544 187.357 73.768C183.485 77.8747 181.549 83.9173 181.549 91.896C181.549 99.7573 183.427 105.8 187.181 110.024C191.053 114.248 195.864 116.36 201.613 116.36ZM308.11 142.408C298.489 142.408 289.806 140.355 282.062 136.248C274.436 132.141 268.393 126.275 263.934 118.648C259.593 111.021 257.422 102.104 257.422 91.896C257.422 81.8053 259.652 72.9467 264.11 65.32C268.569 57.576 274.67 51.6507 282.414 47.544C290.158 43.4373 298.841 41.384 308.462 41.384C318.084 41.384 326.766 43.4373 334.51 47.544C342.254 51.6507 348.356 57.576 352.814 65.32C357.273 72.9467 359.502 81.8053 359.502 91.896C359.502 101.987 357.214 110.904 352.638 118.648C348.18 126.275 342.02 132.141 334.158 136.248C326.414 140.355 317.732 142.408 308.11 142.408ZM308.11 116.36C313.86 116.36 318.729 114.248 322.718 110.024C326.825 105.8 328.878 99.7573 328.878 91.896C328.878 84.0347 326.884 77.992 322.894 73.768C319.022 69.544 314.212 67.432 308.462 67.432C302.596 67.432 297.726 69.544 293.854 73.768C289.982 77.8747 288.046 83.9173 288.046 91.896C288.046 99.7573 289.924 105.8 293.678 110.024C297.55 114.248 302.361 116.36 308.11 116.36ZM429.744 41.736C441.242 41.736 450.394 45.4907 457.2 53C464.122 60.392 467.584 70.6 467.584 83.624V141H437.664V87.672C437.664 81.1013 435.962 75.9973 432.56 72.36C429.157 68.7227 424.581 66.904 418.832 66.904C413.082 66.904 408.506 68.7227 405.104 72.36C401.701 75.9973 400 81.1013 400 87.672V141H369.904V42.792H400V55.816C403.05 51.4747 407.157 48.072 412.32 45.608C417.482 43.0267 423.29 41.736 429.744 41.736ZM513.028 10.76V141H482.932V10.76H513.028ZM544.409 32.584C539.129 32.584 534.788 31.0587 531.385 28.008C528.1 24.84 526.457 20.968 526.457 16.392C526.457 11.6987 528.1 7.82666 531.385 4.77599C534.788 1.60799 539.129 0.0239897 544.409 0.0239897C549.572 0.0239897 553.796 1.60799 557.081 4.77599C560.484 7.82666 562.185 11.6987 562.185 16.392C562.185 20.968 560.484 24.84 557.081 28.008C553.796 31.0587 549.572 32.584 544.409 32.584ZM559.369 42.792V141H529.273V42.792H559.369ZM612.926 41.384C619.849 41.384 625.891 42.792 631.054 45.608C636.334 48.424 640.382 52.12 643.198 56.696V42.792H673.294V140.824C673.294 149.859 671.475 158.013 667.838 165.288C664.318 172.68 658.862 178.547 651.47 182.888C644.195 187.229 635.102 189.4 624.19 189.4C609.641 189.4 597.849 185.939 588.814 179.016C579.779 172.211 574.617 162.941 573.326 151.208H603.07C604.009 154.963 606.238 157.896 609.758 160.008C613.278 162.237 617.619 163.352 622.782 163.352C629.001 163.352 633.929 161.533 637.566 157.896C641.321 154.376 643.198 148.685 643.198 140.824V126.92C640.265 131.496 636.217 135.251 631.054 138.184C625.891 141 619.849 142.408 612.926 142.408C604.83 142.408 597.497 140.355 590.926 136.248C584.355 132.024 579.134 126.099 575.262 118.472C571.507 110.728 569.63 101.811 569.63 91.72C569.63 81.6293 571.507 72.7707 575.262 65.144C579.134 57.5173 584.355 51.6507 590.926 47.544C597.497 43.4373 604.83 41.384 612.926 41.384ZM643.198 91.896C643.198 84.3867 641.086 78.4613 636.862 74.12C632.755 69.7787 627.71 67.608 621.726 67.608C615.742 67.608 610.638 69.7787 606.414 74.12C602.307 78.344 600.254 84.2107 600.254 91.72C600.254 99.2293 602.307 105.213 606.414 109.672C610.638 114.013 615.742 116.184 621.726 116.184C627.71 116.184 632.755 114.013 636.862 109.672C641.086 105.331 643.198 99.4053 643.198 91.896ZM746.87 41.736C758.134 41.736 767.169 45.4907 773.974 53C780.779 60.392 784.182 70.6 784.182 83.624V141H754.262V87.672C754.262 81.1013 752.561 75.9973 749.158 72.36C745.755 68.7227 741.179 66.904 735.43 66.904C729.681 66.904 725.105 68.7227 721.702 72.36C718.299 75.9973 716.598 81.1013 716.598 87.672V141H686.502V10.76H716.598V55.992C719.649 51.6507 723.814 48.1893 729.094 45.608C734.374 43.0267 740.299 41.736 746.87 41.736ZM851.767 115.48V141H836.455C825.543 141 817.036 138.36 810.935 133.08C804.833 127.683 801.783 118.941 801.783 106.856V67.784H789.815V42.792H801.783V18.856H831.879V42.792H851.591V67.784H831.879V107.208C831.879 110.141 832.583 112.253 833.991 113.544C835.399 114.835 837.745 115.48 841.031 115.48H851.767Z" fill="#EAEAEA"/>
</svg>
